<svg xmlns="http://www.w3.org/2000/svg" viewBox="0 0 1155.91 328.48"><defs><style>.cls-1{fill:#f25022;}.cls-2{fill:#80ba01;}.cls-3{fill:#02a4ef;}.cls-4{fill:#ffb902;}.cls-5{fill:#0d0d0d;}</style></defs><title>ms_logo</title><g id="Layer_2" data-name="Layer 2"><g id="Layer_1-2" data-name="Layer 1"><path class="cls-1" d="M0,12.46H149.23q0,74.61,0,149.23H0V12.46Z"/><path class="cls-2" d="M164.47,9.66h152q0,76,0,152h-152q0-76,0-152Z"/><path class="cls-3" d="M0,176.92q74.61,0,149.23,0,0,74.61,0,149.22H0V176.92Z"/><path class="cls-4" d="M164.48,176.94q74.6,0,149.22,0V326.16H164.47q0-74.62,0-149.22Z"/><path class="cls-5" d="M539.09,142.8H522.87V53.39q0-10.59,1.35-25.81h-.39a80.41,80.41,0,0,1-4.15,12.9L472.46,142.8h-7.92L417.22,41.22q-1.94-4.08-4.15-13.64h-.39q.76,8,.77,26V142.8H397.81V9.66h21.44l42.49,92.84a115.19,115.19,0,0,1,6.27,16h.68q4.83-12.81,6.66-16.34L518.71,9.66h20.38V142.8"/><path class="cls-5" d="M584.17,142.8H568.33V47.72h15.84V142.8m2.7-129.15a9.24,9.24,0,0,1-3.09,7.1,11.07,11.07,0,0,1-14.68.09,9.26,9.26,0,0,1-3-7.19,9.44,9.44,0,0,1,2.94-6.92,10,10,0,0,1,7.39-2.92,10.36,10.36,0,0,1,7.44,2.87,9.36,9.36,0,0,1,3,7"/><path class="cls-5" d="M677.91,138.43q-11.49,6.69-27.13,6.69a49.14,49.14,0,0,1-24.29-6,42,42,0,0,1-16.75-16.94,50.4,50.4,0,0,1-6-24.61q0-23.58,14-37.88t37.42-14.3a51.78,51.78,0,0,1,22.89,4.83v15.6a41.71,41.71,0,0,0-23.57-7.43q-15.35,0-25,10.54T620,96.19q0,16.62,9.13,26.27t24.48,9.66A41,41,0,0,0,677.91,124v14.48"/><path class="cls-5" d="M748.48,63.14q-4.25-3.07-12.07-3.07-10.51,0-17.09,9.52t-6.57,24.74V142.8H696.92V47.72h15.83V67.31h.39a33.47,33.47,0,0,1,10.14-15.55A23.91,23.91,0,0,1,739,46.05a26.9,26.9,0,0,1,9.46,1.3V63.14"/><path class="cls-5" d="M831.81,95.45q0-17.92-8.26-27.49T799.94,58.4q-15.26,0-24.14,9.8t-8.89,27.62q0,17.09,8.94,26.69t24.09,9.61q15.45,0,23.66-9.47t8.21-27.2M848,94.89q0,22.67-13.37,36.44t-35.88,13.79q-21.93,0-35-13.42T750.69,96.37q0-23.57,13.42-37.27t37-13.7q22,0,34.47,13.23T848,94.89"/><path class="cls-5" d="M921.59,117.36a24.23,24.23,0,0,1-9.89,20q-9.9,7.71-26.32,7.71-14,0-24.53-5.76V123a40.84,40.84,0,0,0,25.69,9.1q18.83,0,18.83-13.28a11.43,11.43,0,0,0-3.67-8.77q-3.68-3.39-16.7-9.15-13.14-5.37-18.55-11.56T861.05,73q0-11.79,9.85-19.69t25-7.89a49.12,49.12,0,0,1,21.15,4.46V65.18a38,38,0,0,0-22.41-6.78q-7.81,0-12.6,3.71a11.59,11.59,0,0,0-4.78,9.57q0,6.31,3.67,9.7t15.16,8q14.1,5.76,19.8,12.07t5.69,15.88"/><path class="cls-5" d="M1013.41,95.45q0-17.92-8.26-27.49T981.54,58.4q-15.25,0-24.14,9.8t-8.88,27.62q0,17.09,8.93,26.69t24.09,9.61q15.45,0,23.66-9.47t8.21-27.2m16.22-.56q0,22.67-13.37,36.44t-35.88,13.79q-21.92,0-35-13.42T932.29,96.37q0-23.57,13.43-37.27t37-13.7q22,0,34.48,13.23t12.45,36.26"/><path class="cls-5" d="M1094.51,15.41a21.79,21.79,0,0,0-10.53-2.5q-16.61,0-16.61,20.14V47.72h23.18V60.63h-23.18V142.8h-15.84V60.63h-16.8V47.72h16.8V32.31q0-14.49,8.89-23.4T1083,0a32.34,32.34,0,0,1,11.5,1.67V15.41"/><path class="cls-5" d="M1152,141.87q-5.7,3.06-14.87,3.06-25.87,0-25.88-28V60.63h-17V47.72h17V24.51l15.83-4.92V47.72H1152V60.63h-24.92v53.66q0,9.57,3.39,13.61t11.29,4a17.32,17.32,0,0,0,10.24-3.07v13"/><path class="cls-5" d="M644.21,233.59q0-26.46-32.45-26.46h-19v54.59h17q16.71,0,25.59-7.29t8.88-20.84m17-.84q0,19.32-13.86,31.15T611,275.74H592.74v50.42H576.52V193h38q22.22,0,34.43,10.45t12.22,29.29"/><path class="cls-5" d="M728,278.06l-24,3.25q-12.25,1.68-17.19,5.62T682,299.7a14,14,0,0,0,5.31,11.46q5.31,4.32,13.61,4.32,11.79,0,19.46-8t7.68-20v-9.47m15.84,48.1H728V311.3h-.39q-10.33,17.18-30.42,17.18-14.28,0-22.88-7.48t-8.6-20.1q0-26.55,32.64-31l29.65-4q0-24.13-20.38-24.14a50.11,50.11,0,0,0-32.25,11.6V237.77q4.35-3.17,14.87-6.08A71,71,0,0,1,709,228.76q34.86,0,34.86,35.56v61.84"/><path class="cls-5" d="M820.32,246.49q-4.26-3.06-12.08-3.06-10.53,0-17.09,9.52t-6.56,24.74v48.47H768.75V231.08h15.84v19.59H785a33.47,33.47,0,0,1,10.14-15.55,23.88,23.88,0,0,1,15.74-5.71,27,27,0,0,1,9.47,1.3v15.78"/><path class="cls-5" d="M884.22,325.23q-5.7,3.06-14.87,3.06-25.89,0-25.88-28V244h-17V231.08h17V207.87L859.31,203v28.13h24.91V244H859.31v53.66q0,9.57,3.38,13.6t11.3,4a17.3,17.3,0,0,0,10.23-3.06v13"/><path class="cls-5" d="M982.51,326.16H966.67V271.93q0-30.17-23-30.17a25.59,25.59,0,0,0-19.56,8.49q-7.87,8.5-7.87,21.68v54.23H900.43V231.08h15.83v15.79h.39q11.1-18.1,32.45-18.11,16.3,0,24.86,10.21t8.55,29v58.22"/><path class="cls-5" d="M1069.88,269.52q-.2-13.18-6.61-20.47t-18.11-7.29a26,26,0,0,0-18.83,7.61q-7.83,7.62-9.85,20.15h53.4m16.23,12.91h-69.82q.38,16.06,8.83,24.55t23.42,8.5a49.66,49.66,0,0,0,30.61-10.4v14.21q-12.95,9.18-34.38,9.19-21.13,0-33-13.14T999.87,279a55.91,55.91,0,0,1,5.94-25.76,44.15,44.15,0,0,1,16.37-18.06,43.41,43.41,0,0,1,23.17-6.41q19.22,0,30,12t10.77,33.66v8"/><path class="cls-5" d="M1155.91,246.49q-4.26-3.06-12.07-3.06-10.54,0-17.1,9.52t-6.57,24.74v48.47h-15.83V231.08h15.83v19.59h.39a33.39,33.39,0,0,1,10.14-15.55,23.88,23.88,0,0,1,15.74-5.71,27,27,0,0,1,9.47,1.3v15.78"/></g></g></svg>