<svg xmlns="http://www.w3.org/2000/svg" xmlns:xlink="http://www.w3.org/1999/xlink" viewBox="0 0 112.52 18.76"><defs><style>.cls-1{fill:url(#linear-gradient);}.cls-2{fill:#fff;}.cls-3{fill:#838bc5;}</style><linearGradient id="linear-gradient" x1="80.91" x2="80.91" y2="18.49" gradientUnits="userSpaceOnUse"><stop offset="0" stop-color="#838bc5"/><stop offset="0.25" stop-color="#868ec6"/><stop offset="0.43" stop-color="#8f96cb"/><stop offset="0.58" stop-color="#9ea5d2"/><stop offset="0.71" stop-color="#b4b9dc"/><stop offset="0.84" stop-color="#d0d3e9"/><stop offset="0.96" stop-color="#f2f3f9"/><stop offset="1" stop-color="#fff"/></linearGradient></defs><title>taomgtwhite</title><g id="Layer_2" data-name="Layer 2"><g id="Layer_6" data-name="Layer 6"><path class="cls-1" d="M61.71,18.25,58,5.29h-.12c.18,2.21.26,3.92.26,5.14v7.82h-4.3V.26h6.47L64.1,13h.1L67.88.26h6.48v18H69.9V10.36c0-.41,0-.86,0-1.36s.06-1.73.16-3.68H70L66.34,18.25Z"/><path class="cls-1" d="M84.83,7.71H92.6v9.7a21.44,21.44,0,0,1-7,1.08,8.41,8.41,0,0,1-6.43-2.41Q76.95,13.67,77,9.2a9,9,0,0,1,2.48-6.78,9.58,9.58,0,0,1,7-2.42A15.6,15.6,0,0,1,89.6.32a13.19,13.19,0,0,1,2.63.81L90.69,5a9.52,9.52,0,0,0-4.27-1,4.05,4.05,0,0,0-3.29,1.38,6,6,0,0,0-1.17,4A6.06,6.06,0,0,0,83,13.17a3.65,3.65,0,0,0,3,1.33,8.81,8.81,0,0,0,2-.21V11.47H84.83Z"/><path class="cls-1" d="M103.57,18.25H98.71v-14H94.32v-4H108v4h-4.38Z"/><path class="cls-2" d="M9.25,18.52H4.39V4.5H0v-4H13.63v4H9.25Z"/><path class="cls-2" d="M26.61,18.52l-.88-3.37H19.88L19,18.52H13.63L19.5.45H26l5.94,18.07Zm-1.89-7.36-.78-2.95q-.27-1-.66-2.55c-.25-1-.42-1.79-.51-2.24-.07.42-.22,1.11-.43,2.07s-.7,2.85-1.45,5.67Z"/><path class="cls-2" d="M50.08,9.5c0,3-.75,5.33-2.23,6.9s-3.66,2.36-6.52,2.36a8.52,8.52,0,0,1-6.49-2.37c-1.51-1.59-2.26-3.89-2.26-6.92s.75-5.28,2.24-6.86S38.5.24,41.35.24s5,.79,6.51,2.35S50.08,6.46,50.08,9.5ZM37.7,9.5c0,3.48,1.21,5.21,3.63,5.21a3.11,3.11,0,0,0,2.73-1.26A6.9,6.9,0,0,0,45,9.5a6.9,6.9,0,0,0-.91-4,3.07,3.07,0,0,0-2.7-1.29Q37.71,4.23,37.7,9.5Z"/><circle class="cls-3" cx="109.98" cy="15.96" r="2.54"/></g></g></svg>