<svg xmlns="http://www.w3.org/2000/svg" viewBox="0 0 113.03 18.76"><defs><style>.cls-1{fill:#fff;}.cls-2{fill:#f3f4fa;}.cls-3{fill:#838bc5;}</style></defs><title>taomgt</title><g id="Layer_2" data-name="Layer 2"><g id="Layer_7" data-name="Layer 7"><path class="cls-1" d="M9.25,18.52H4.39V4.5H0v-4H13.63v4H9.25Z"/><path class="cls-1" d="M26.61,18.52l-.88-3.37H19.88L19,18.52H13.63L19.5.45H26l5.94,18.07Zm-1.89-7.36-.78-2.95q-.27-1-.66-2.55c-.25-1-.42-1.79-.51-2.24-.07.42-.22,1.11-.43,2.07s-.7,2.85-1.45,5.67Z"/><path class="cls-1" d="M50.08,9.5c0,3-.75,5.33-2.23,6.9s-3.66,2.36-6.52,2.36a8.52,8.52,0,0,1-6.49-2.37Q32.57,14,32.58,9.47t2.24-6.86Q37.07.26,41.35.25T47.86,2.6Q50.08,4.94,50.08,9.5ZM37.7,9.5q0,5.22,3.63,5.22a3.11,3.11,0,0,0,2.73-1.27A6.9,6.9,0,0,0,45,9.5a6.92,6.92,0,0,0-.91-4,3.07,3.07,0,0,0-2.7-1.29Q37.71,4.23,37.7,9.5Z"/><path class="cls-2" d="M61.86,18.25l-3.68-13h-.11c.17,2.21.26,3.92.26,5.14v7.82H54V.26h6.47L64.25,13h.09L68,.26h6.49v18H70V10.36c0-.41,0-.86,0-1.36s.07-1.73.16-3.68h-.11L66.48,18.25Z"/><path class="cls-2" d="M85,7.71h7.76v9.7a21.42,21.42,0,0,1-6.95,1.08,8.39,8.39,0,0,1-6.43-2.41Q77.1,13.67,77.09,9.2a9.07,9.07,0,0,1,2.48-6.78,9.59,9.59,0,0,1,7-2.42,15.57,15.57,0,0,1,3.2.32,13.19,13.19,0,0,1,2.63.81L90.83,5a9.49,9.49,0,0,0-4.27-1,4.07,4.07,0,0,0-3.29,1.38,6,6,0,0,0-1.16,4,6.06,6.06,0,0,0,1,3.84,3.65,3.65,0,0,0,3,1.33,8.9,8.9,0,0,0,2-.21V11.47H85Z"/><path class="cls-2" d="M103.71,18.25H98.85v-14H94.46v-4h13.63v4h-4.38Z"/></g><g id="Layer_2-2" data-name="Layer 2"><circle class="cls-3" cx="110.49" cy="15.71" r="2.54"/></g></g></svg>