<svg xmlns="http://www.w3.org/2000/svg" viewBox="0 0 91.44 352.27"><defs><style>.a,.b,.c{stroke:#000;stroke-miterlimit:10;}.a{stroke-width:0.34px;}.b{fill:#fff;stroke-width:0.25px;}.c{stroke-width:0.4px;}</style></defs><title>taoprocess_1</title><path d="M46.34,143.64a1.13,1.13,0,1,0-1.43-.71A1.13,1.13,0,0,0,46.34,143.64Z"/><path d="M46.34,150.58a1.13,1.13,0,1,0-1.43-.72A1.13,1.13,0,0,0,46.34,150.58Z"/><path d="M46.33,251.24c.58-1,1.17-2,1.73-3,2.93-5.24,4.47-9.42,5-13.55a18.64,18.64,0,0,0-3.34-13.93,13.13,13.13,0,0,0-1.23-1.35l.61-.48,1-.84.66-.56,1.83,1.38a9.22,9.22,0,0,0,2.78,1.63A3.41,3.41,0,0,0,58.7,220a2.67,2.67,0,0,0,.82-2.31A3.59,3.59,0,0,0,57.9,215a5.51,5.51,0,0,0-5.25.17,11.79,11.79,0,0,0-1.91,1.28L45,212.07A16.21,16.21,0,0,0,48.53,210l.21-.17a5.82,5.82,0,0,0,.52.68A4,4,0,0,0,53.07,212a2.89,2.89,0,0,0,1.87-1.52,2.25,2.25,0,0,0,.1-2c-.6-1.4-2.44-1.77-3.79-1.31A7.25,7.25,0,0,0,49,208.5a16.42,16.42,0,0,1-.68-1.83,48.14,48.14,0,0,1-2.16-15.17l.07,0c.68-.46,1.61-2.22,2.41-5a12,12,0,0,0,4.18.75,13.6,13.6,0,0,0,8.26-2.91,26.7,26.7,0,0,0,3.51-3.46A20.65,20.65,0,0,1,68.76,177a10.44,10.44,0,0,1,8.83-1,.43.43,0,0,0,.55-.27v0a.41.41,0,0,0-.08-.54,15.75,15.75,0,0,0-7.46-3.33,23.83,23.83,0,0,0-7.89.08A25.89,25.89,0,0,0,66.94,157h0a.13.13,0,0,0,0-.06v-.06s0,0,0-.05l0,0h0l0-.05,0,0h0l0,0-.06,0h-.25a33.19,33.19,0,0,0-10.2,5,23.73,23.73,0,0,0-8.5-14.39,3,3,0,0,0-.85-.47,1.15,1.15,0,0,0,.22-1.1,1.13,1.13,0,0,0-2.15.72,1.51,1.51,0,0,0,.15.28,3,3,0,0,0-1.2.57,23.73,23.73,0,0,0-8.5,14.39,33.19,33.19,0,0,0-10.2-5h-.25l-.06,0,0,0,0,0h0l-.05,0,0,0h0l0,0s0,0,0,.05v0s0,0,0,0,0,0,0,.06h0a26,26,0,0,0,4.22,14.85,23.77,23.77,0,0,0-7.88-.08,15.75,15.75,0,0,0-7.46,3.33.43.43,0,0,0-.09.54s0,0,0,0a.42.42,0,0,0,.54.27,10.46,10.46,0,0,1,8.84,1A20.92,20.92,0,0,1,27,180.85a26.62,26.62,0,0,0,3.5,3.46,13.65,13.65,0,0,0,8.27,2.91,12,12,0,0,0,4.18-.75c.79,2.77,1.72,4.54,2.39,5a48.79,48.79,0,0,0,2.21,15.46,15,15,0,0,0,.8,2.12l-.31.25a15.34,15.34,0,0,1-3.85,2.17l-2.88-2.19a8.9,8.9,0,0,0-4.16-2.07,3.84,3.84,0,0,0-2.79.86,2.54,2.54,0,0,0-.25,3.74A5.93,5.93,0,0,0,38,213.37a16,16,0,0,0,6-.94L50.06,217l-.52.44-1,.82-.72.57a12.1,12.1,0,0,0-11.36-2.56c-1.93.63-3.81,2.18-3.7,4.23a3.9,3.9,0,0,0,3,3.33,8.56,8.56,0,0,0,4.43-.29,25,25,0,0,0,7.54-3.61,11.68,11.68,0,0,1,1.27,1.36c2.67,3.38,3.82,8.22,3.16,13.29-.52,4-2,8.1-4.9,13.24-.56,1-1.16,2-1.73,3M38,212.51a4.92,4.92,0,0,1-3.33-1.28,1.72,1.72,0,0,1-.48-1.27,1.76,1.76,0,0,1,.66-1.24,3,3,0,0,1,1.86-.67l.28,0a7.92,7.92,0,0,1,3.73,1.9l2.43,1.84A15.23,15.23,0,0,1,38,212.51Zm2,10.2a7.66,7.66,0,0,1-4,.29,3.08,3.08,0,0,1-2.39-2.55c-.09-1.58,1.55-2.85,3.1-3.36a9.29,9.29,0,0,1,2.92-.46,12.1,12.1,0,0,1,7.45,2.72A23.86,23.86,0,0,1,40,222.71Zm13-6.79a4.62,4.62,0,0,1,4.41-.19,2.73,2.73,0,0,1,1.21,2,1.86,1.86,0,0,1-.55,1.6,2.64,2.64,0,0,1-2.5.38,8.87,8.87,0,0,1-2.52-1.49L51.44,217A10.59,10.59,0,0,1,53.05,215.92Zm-1.53-8a2.24,2.24,0,0,1,2.74.84,1.5,1.5,0,0,1-.08,1.25,2,2,0,0,1-1.31,1.06,3.16,3.16,0,0,1-3-1.18,6.26,6.26,0,0,1-.49-.66A7,7,0,0,1,51.52,208Zm10.91-37.24-.1,0a.29.29,0,0,0-.21.48c-.2.3-.41.6-.63.88l-1.34.27a.29.29,0,1,0-.36.09c-.86.2-1.68.41-2.47.65a.21.21,0,0,0-.07-.12l-.24-.19a.41.41,0,0,0-.15-.07.26.26,0,0,0-.24-.15.28.28,0,0,0-.06.56l0,.07.12.09-.65.23a.28.28,0,0,0-.45,0,.24.24,0,0,0-.19-.08h0a.28.28,0,0,0-.26.39l-.66.28a.25.25,0,0,0-.26-.2h-.05a.28.28,0,0,0-.24.42l-.11,0a.28.28,0,0,0-.26-.38l-.07,0a.25.25,0,0,0-.26-.2.23.23,0,0,0-.11,0l1.42-1.72a.28.28,0,0,0,0,.13v.05a.29.29,0,0,0,.55.1l.08,0,.23-.18a.29.29,0,0,0,0-.41.28.28,0,0,0-.4,0l-.24.19s0,0,0,0a.26.26,0,0,0-.09.05l1.23-1.47a.29.29,0,1,0,.22-.12.22.22,0,0,0-.18.08l.93-1.12a.25.25,0,0,0,.24.15.28.28,0,0,0,.1-.55l1-1.19c.37-.43.74-.87,1.1-1.31a.26.26,0,0,0,.27.22.29.29,0,0,0,0-.57c2.32-2.76,4.62-5.53,6.56-7.95A25.28,25.28,0,0,1,62.43,170.72Zm-9.25,3.66h0l.07,0a.25.25,0,0,0,.18.18l-.27.13a.31.31,0,0,0,0-.11v0A.33.33,0,0,0,53.18,174.38Zm12.11-16.53c-2.3,2.86-5.1,6.2-7.81,9.43l-4,4.83a.27.27,0,0,0-.26-.37.29.29,0,0,0,0,.57l.12,0L52,173.81a.25.25,0,0,0-.26-.22.28.28,0,0,0-.26.39.3.3,0,0,0,0,.46c-.11.12-.21.25-.31.37a.28.28,0,0,0-.24-.42.29.29,0,0,0-.22.46.25.25,0,0,0-.2-.09.26.26,0,0,0-.26.2h0q0-.74,0-1.5c0-.37,0-.73,0-1.09a.3.3,0,0,0,.27.14.29.29,0,0,0,.12.55h.05a.27.27,0,0,0,.27-.31h0a.29.29,0,0,0,0-.57.24.24,0,0,0-.19.08.29.29,0,0,0-.48-.28l0,0s0,.05,0,.07c0-.52-.07-1-.13-1.55a.27.27,0,0,0,.4-.11.26.26,0,0,0,.25-.27V170a.29.29,0,0,0-.57,0h0a.27.27,0,0,0-.12.09c0-.21,0-.42-.08-.63l.11,0a.28.28,0,0,0,0-.56A30.88,30.88,0,0,1,65.29,157.85ZM53,174.26a.27.27,0,0,0-.34.27v0l-.07-.05c.12-.16.25-.31.38-.47A.36.36,0,0,0,53,174.26Zm-.75.66a.28.28,0,0,0-.11.22v.08l-.28.16.39-.47Zm-1.1,0-.06.08s0,0,0,0Zm-.41.5c0,.06-.09.12-.14.17a.28.28,0,0,0-.27.2l0,.06s0,0,0,0a.19.19,0,0,0-.08,0c0-.09,0-.19,0-.29l.11,0a.29.29,0,0,0,.3-.24h0A.28.28,0,0,0,50.73,175.4ZM50,179.21l.06.06H50s0-.06,0-.09Zm.85-14.38a.41.41,0,0,0,.16,0,.32.32,0,0,0,0,.37l-.08,0-.12,0A.3.3,0,0,0,50.87,164.83Zm-12.29.74a.28.28,0,0,0,.05.56.26.26,0,0,0,.27-.22c.29.31.57.62.85.94a.29.29,0,0,0,.21.48.25.25,0,0,0,.16-.05c.13.15.26.32.38.47a.29.29,0,0,0,.11.56.26.26,0,0,0,.23-.13l.51.68a.29.29,0,0,0,.17.52l.09,0,0,.17a.29.29,0,0,0-.48.21v0a.28.28,0,0,0,.41.25c0,.06,0,.12,0,.18h0a.28.28,0,0,0-.06.56c0,.18,0,.36,0,.54a.26.26,0,0,0-.25-.16.29.29,0,0,0,0,.57.25.25,0,0,0,.22-.11c0,.15,0,.3,0,.44a.29.29,0,0,0-.45.23v0a.28.28,0,0,0,.43.23c0,.31,0,.61,0,.92a.25.25,0,0,0-.18-.07.28.28,0,0,0-.2.48h0a.29.29,0,0,0,0,.57h0a.28.28,0,0,0,.2-.48.3.3,0,0,0,.19-.08v.42a.28.28,0,0,0,0,.56c0,.19,0,.38,0,.57h0a.26.26,0,0,0-.27.23s-.08-.1-.12-.15h0a.29.29,0,0,0,0-.57.27.27,0,0,0-.27.25l-.27-.34a.29.29,0,0,0-.2-.49.25.25,0,0,0-.16.05l-.51-.62h0a.22.22,0,0,0,.21.11h0a.29.29,0,0,0,0-.57h0a.24.24,0,0,0-.12,0,.3.3,0,0,0-.47,0l-.07-.1a.28.28,0,0,0,0-.56.25.25,0,0,0-.26.23l-.38-.45h.06a.29.29,0,0,0,0-.57.26.26,0,0,0-.27.29l-.44-.52.09,0a.29.29,0,0,0,0-.57.27.27,0,0,0-.26.34l-2.41-2.88a.25.25,0,0,0,.18.07h.06a.29.29,0,0,0,0-.57h-.06a.28.28,0,0,0-.23.44c-.23-.26-.45-.53-.67-.79a.27.27,0,0,0,.18.07.29.29,0,0,0,0-.57.28.28,0,0,0-.22.44l-.35-.41c-2.72-3.23-5.51-6.57-7.81-9.43A31.45,31.45,0,0,1,38.58,165.57Zm1.66.53h0l.11,0a.26.26,0,0,0,.23.24.47.47,0,0,0,0,.17Zm.55.64h0v0Zm.65,0,.1,0v.34h0l-.05-.05,0,0A.3.3,0,0,0,41.44,166.72Zm.14,12.54h0s0,0,0,0Zm-.19-1a.26.26,0,0,0,.09-.05c0,.09,0,.19,0,.28l0-.05,0,0a.29.29,0,0,0-.48.22l-.12,0h0a.29.29,0,0,0,.12-.3.23.23,0,0,0,.18,0h.11ZM41.3,176h0v.06Zm.22,2.72v.07s0,0,0,0S41.51,178.73,41.52,178.71Zm-1.82-3.33,0,0h0ZM25.46,158.22c2.33,2.91,5.18,6.31,7.95,9.61l1.18,1.4h0a.29.29,0,0,0,0,.57.27.27,0,0,0,.27-.29c.13.16.26.32.4.47a.28.28,0,0,0-.22.38.28.28,0,0,0-.13,0,.29.29,0,1,0,.26.18.28.28,0,0,0,.13,0,.26.26,0,0,0,.26-.19q.84,1,1.65,2a.26.26,0,0,0-.06.16v0a.24.24,0,0,0,0,.08.28.28,0,0,0-.22-.11.29.29,0,0,0,0,.57.27.27,0,0,0,.26-.37.31.31,0,0,0,.36.06c.25.3.5.59.74.89a.25.25,0,0,0-.15.24v0a.29.29,0,0,0,.51.17c.23.28.46.55.68.83a.28.28,0,0,0-.08.2L39,175a.23.23,0,0,0,0-.15v0a.28.28,0,0,0-.56-.06l-.33-.16a.29.29,0,0,0-.21-.49.27.27,0,0,0-.27.25c-.49-.22-1-.43-1.52-.63a.31.31,0,0,0,0-.28h0a.29.29,0,1,0-.26-.18h0a.27.27,0,0,0-.27.29c-.3-.11-.59-.22-.9-.31a.27.27,0,0,0,.1-.21v0a.29.29,0,0,0-.58,0v0a.14.14,0,0,0,0,.06c-1-.32-2.1-.6-3.25-.85a.29.29,0,0,0-.18-.51h0a.28.28,0,0,0-.24.42l-.58-.11L30,172a.31.31,0,0,0,.2.08.29.29,0,0,0,0-.57A.28.28,0,0,0,30,172,24.61,24.61,0,0,1,25.46,158.22ZM42,185.89a.25.25,0,0,0-.25-.15.27.27,0,0,0-.27.29l-.57.13a.27.27,0,0,0-.27-.27.28.28,0,0,0-.27.36,11.87,11.87,0,0,1-1.58.11.27.27,0,1,0-.52,0l-.52,0a.25.25,0,0,0-.13-.18.28.28,0,0,0,0-.56.25.25,0,0,0-.25.17.26.26,0,0,0-.26-.2.29.29,0,0,0,0,.58.25.25,0,0,0,.25-.18.28.28,0,0,0,.12.16.3.3,0,0,0-.23.15,12.68,12.68,0,0,1-1.49-.3.28.28,0,0,0-.26-.36.26.26,0,0,0-.27.21A13.42,13.42,0,0,1,31.43,184l.08,0a.29.29,0,1,0-.22-.12l-.3-.22a25.54,25.54,0,0,1-3.39-3.35,22,22,0,0,0-4.35-4,11.37,11.37,0,0,0-7.75-1.55,15.43,15.43,0,0,1,5.59-2.08,23.12,23.12,0,0,1,7.85.11c.85.14,1.66.31,2.44.49a.29.29,0,0,0-.06.17v0a.29.29,0,0,0,.57,0v0a.09.09,0,0,0,0,0,30.2,30.2,0,0,1,6,2.06c-.19.26.19.61.43.37l0,0a.7.7,0,0,0,.06-.09c.31.16.62.32.92.49a.28.28,0,0,0,.23.44.26.26,0,0,0,.25-.16c.25.14.5.3.74.45a.28.28,0,0,0,.26.4.27.27,0,0,0,.21-.1l.22.14a.36.36,0,0,0,0,.1.29.29,0,1,0-.4.41.26.26,0,0,0-.05.24.29.29,0,0,0-.31.47l0,0a.27.27,0,0,0,.2.08.29.29,0,0,0,.17.51h0a.28.28,0,0,0,0,.2h-.12a.29.29,0,0,0-.21.09.27.27,0,0,0-.27-.33.29.29,0,0,0,0,.57.29.29,0,0,0,.21-.09.27.27,0,0,0,.27.33h0l.1,0a.22.22,0,0,0,.14.05.26.26,0,0,0,.19-.08.29.29,0,0,0,.41-.14c0,.14,0,.29,0,.44a.18.18,0,0,0-.11,0h-.11a.26.26,0,0,0-.26-.19.27.27,0,0,0-.27.27l0,0a.26.26,0,0,0-.27-.22h0a.29.29,0,0,0-.11.55.27.27,0,0,0,.31.22.29.29,0,0,0,.19.5.29.29,0,0,0,0-.58h0a.26.26,0,0,0,.08-.2h0a.31.31,0,0,0,.16.06l.07,0a.28.28,0,0,0,0,.13v.12a.29.29,0,0,0,.54.13c0,.09,0,.18,0,.28a.29.29,0,0,0-.28-.12h-.06a.27.27,0,0,0-.26.35,0,0,0,0,0,0,0v0a.33.33,0,0,0,0,.14.3.3,0,0,0,.41.32h0v0a0,0,0,0,0,0,0,.28.28,0,0,0-.43.23v0a.3.3,0,0,0,.06.18l0,0,0,0a.22.22,0,0,0-.05.08h0a.29.29,0,0,0-.2.49h0a.29.29,0,0,0-.11.55.25.25,0,0,0,.05.19s0,0,0,.05a.08.08,0,0,0,0,0V184s0,0,0,0a.25.25,0,0,0,.07.12A.63.63,0,0,0,41,185a.25.25,0,0,0,.2-.09.27.27,0,0,0,.27.31.26.26,0,0,0,.19-.07.28.28,0,0,0,.18.44.26.26,0,0,0,.24.15.25.25,0,0,0,.23-.14.27.27,0,0,0,.08.17Zm.35-.48a.42.42,0,0,0-.65-.32.28.28,0,0,0-.23-.45.27.27,0,0,0-.2.09.22.22,0,0,0,0-.16.3.3,0,0,0,0-.33.16.16,0,0,0,.08.06l.08,0c.33.17.62-.32.29-.49l-.08,0a.25.25,0,0,0-.25,0l0,0a.29.29,0,0,0-.16-.43.29.29,0,0,0-.08-.21h0a.24.24,0,0,0,.25-.17.26.26,0,0,0,.26-.07l0,0a.25.25,0,0,0,0-.37.24.24,0,0,0,.12-.14.28.28,0,0,0,.25,0l.06.35a.28.28,0,0,0-.22.4.25.25,0,0,0-.16,0,.26.26,0,0,0-.27.3.28.28,0,0,0,.24.42.26.26,0,0,0,.27-.3.29.29,0,0,0,0-.27.25.25,0,0,0,.16.05h.07l.09.48a.25.25,0,0,0-.15-.05.65.65,0,0,0-.05.75.29.29,0,0,0-.13.39l0,.05a.24.24,0,0,0,.29.13.29.29,0,0,0,.16.34A.2.2,0,0,0,42.3,185.41Zm-.47-17.34h0Zm.57,16.45a.08.08,0,0,0,0,0s0,0,0,0,0,.08,0,.12Zm0,.27a.25.25,0,0,0,0-.08s0,0,0,.07Zm2.92,5.48-.07-.12.08-.05C45.37,190.16,45.36,190.21,45.36,190.27Zm0-.81a.3.3,0,0,0-.16.08h0l-.12,0-.11.07c-.08-.14-.15-.3-.23-.47a.25.25,0,0,0,.16,0,.27.27,0,0,0,.25-.17.21.21,0,0,0,.12,0h0l.08,0Zm.06-.92-.11,0h0a.26.26,0,0,0-.2.08.19.19,0,0,0,0-.08v-.05a.28.28,0,0,0-.37-.26.29.29,0,0,0,.12-.07.29.29,0,0,0,.25-.25.25.25,0,0,0,.38,0C45.5,188.1,45.48,188.32,45.47,188.54Zm.11-2.08a.23.23,0,0,0-.07-.11l0,0a.28.28,0,0,0-.15-.08.31.31,0,0,0,0-.31.28.28,0,1,0-.27.45.26.26,0,0,0,0,.34l0,0a.28.28,0,0,0,.46-.11c0,.29,0,.58,0,.86a.24.24,0,0,0-.22-.12.25.25,0,0,0-.26.23.31.31,0,0,0-.43,0,.27.27,0,0,0-.25.27V188a.27.27,0,0,0,.36.26.25.25,0,0,0-.17.25v.05a.26.26,0,0,0,.16.25.28.28,0,0,0,0,.16c-.16-.37-.32-.78-.49-1.25a.29.29,0,0,0,0-.57.28.28,0,0,0-.13,0c-.11-.34-.22-.69-.32-1.07a.29.29,0,0,0,.17.06.29.29,0,0,0,0-.57.26.26,0,0,0-.26.2,48.35,48.35,0,0,1-1.46-12.3,21.87,21.87,0,0,1,3.21-11.83A226.91,226.91,0,0,1,45.58,186.46ZM45.86,160a.4.4,0,0,0-.19,0,.46.46,0,0,0-.27.13l-.07,0a.28.28,0,0,0-.23.45l-.39.58a.26.26,0,0,0-.25-.16.33.33,0,0,0-.15,0,.25.25,0,0,0-.26-.22.29.29,0,0,0,0,.57.29.29,0,0,0,.14,0,.26.26,0,0,0,.24.21l-.14.25a.21.21,0,0,0-.18-.11.23.23,0,0,0-.22-.11l-.1,0a.29.29,0,1,0-.25.17.17.17,0,0,0,.1,0,.29.29,0,0,0,.21.4.27.27,0,0,0,.2.11c-.14.23-.28.47-.4.71l-.07-.1,0,0a.27.27,0,0,0-.4,0,.26.26,0,0,0-.21-.09.29.29,0,0,0,0,.57.25.25,0,0,0,.2-.09h0l0,0a.27.27,0,0,0,.3.06c-.08.15-.14.31-.21.47a.31.31,0,0,0-.17-.05.25.25,0,0,0-.23.14l0,0a.29.29,0,0,0-.18-.5.24.24,0,0,0-.19.08.26.26,0,0,0-.27-.23.27.27,0,0,0-.28.27.25.25,0,0,0-.18-.07.26.26,0,0,0-.27.25.29.29,0,0,0,.12.55.27.27,0,0,0,.27-.25.28.28,0,0,0,.15-.26.26.26,0,0,0,.19.08.28.28,0,0,0,.19-.08.28.28,0,0,0,.2.22.26.26,0,0,0,0,.41l.08.08a.25.25,0,0,0,.36,0c-.09.23-.17.46-.25.69a.24.24,0,0,0-.14-.17.29.29,0,1,0-.32,0,.24.24,0,0,0-.1.21v0a.14.14,0,0,0,0,.07.25.25,0,0,0-.16,0,.29.29,0,0,0,0,.57.28.28,0,0,0,.26-.37.32.32,0,0,0,.33,0c0,.12-.09.24-.13.36a.18.18,0,0,0-.11,0,.29.29,0,0,0-.07.56l0,.11a.25.25,0,0,0-.25-.18.23.23,0,0,0-.22.11s0,0,0,0a.29.29,0,0,0-.05-.57h0a.29.29,0,0,0-.17.51h0a.28.28,0,0,0-.45-.07l0,0,0,.06-.08,0a.28.28,0,0,0-.24-.43l-.11,0a.26.26,0,0,0-.27-.25h0a.27.27,0,0,0-.28.26l-.27-.29h.08a.28.28,0,0,0,.23-.44h.07a.27.27,0,0,0,.26-.36.28.28,0,0,0,.37-.26v0a.29.29,0,0,0-.55-.1A.3.3,0,0,0,40,164a.28.28,0,0,0,.12-.3.27.27,0,0,0,.27.24.29.29,0,0,0,0-.57.28.28,0,0,0-.27.32.25.25,0,0,0-.26-.22h0a.25.25,0,0,0-.22.12.25.25,0,0,0-.15-.05.28.28,0,0,0-.26.38.29.29,0,0,0-.55.12v0a.29.29,0,0,0,.57,0v0a.3.3,0,0,0,0-.1.26.26,0,0,0,.26.17.25.25,0,0,0,.22-.11l0,0a.29.29,0,0,0,.15.53.26.26,0,0,0,.26-.18.3.3,0,0,0,0,.1v0s0,0,0,.06h-.07a.29.29,0,0,0-.23.45l-.07,0a.28.28,0,0,0-.26.37l-.32-.34a.33.33,0,0,0,0-.24.24.24,0,0,0,.22.12.29.29,0,0,0,0-.57.28.28,0,0,0-.26.37.25.25,0,0,0-.22-.12.25.25,0,0,0-.16.05l-.51-.49.1,0a.29.29,0,0,0,0-.58.28.28,0,0,0-.24.42c-.59-.55-1.2-1.07-1.83-1.57a.27.27,0,0,0,.19-.31h0a.27.27,0,0,0,.27.33.21.21,0,0,0,.16-.06l0,.06,0,.13a.28.28,0,0,0,.2.35.3.3,0,0,0,.35-.2l.05-.13a.28.28,0,0,0-.2-.35.23.23,0,0,0-.24.06.29.29,0,0,0-.24-.43l-.08,0a.26.26,0,0,0-.08-.24l0,0a.25.25,0,0,0-.35,0l.12-.61a.26.26,0,0,0,.26.18.28.28,0,0,0,.13,0,.28.28,0,0,0,.56,0v0a.29.29,0,0,0-.43-.24.25.25,0,0,0-.26-.22.29.29,0,0,0-.19.07c.05-.21.12-.4.17-.61a.27.27,0,0,0,.27.29.29.29,0,0,0,0-.57.27.27,0,0,0-.27.27,23.06,23.06,0,0,1,2.23-5.52.26.26,0,0,0,.27.21h0a.29.29,0,0,0,0-.57H39a22.65,22.65,0,0,1,5.35-6.18,2.22,2.22,0,0,1,2.76,0,22.47,22.47,0,0,1,5.63,6.67.3.3,0,0,0,.12.22,22.89,22.89,0,0,1,1.36,3,.28.28,0,0,0,.05.56.33.33,0,0,0,.14,0,2.58,2.58,0,0,1,.08.26.29.29,0,0,0,0,.57.25.25,0,0,0,.16,0c0,.12.08.25.11.38A.28.28,0,0,0,55,160l.15.58a.26.26,0,0,0-.26.27v0a.28.28,0,0,0,.38.26l.12.63a.25.25,0,0,0-.24-.15.29.29,0,0,0,0,.57.26.26,0,0,0,.27-.24v0a.3.3,0,0,0,0,.33l-.14.11a.27.27,0,0,0-.25-.17.24.24,0,0,0-.17.06.29.29,0,1,0-.24.15.25.25,0,0,0,.16-.05.29.29,0,0,0,.08.35l-.19.15,0,0c.11-.35-.44-.5-.55-.15l0,.07a.23.23,0,0,0,0,.22.32.32,0,0,0,0,.35l-.43.37a.1.1,0,0,0,0-.05.28.28,0,1,0-.37.07.3.3,0,0,0,0,.35l-.2.2a.27.27,0,0,0-.26-.36h-.13a.33.33,0,0,0,0-.22.28.28,0,0,0,.13-.07l0,0a.28.28,0,0,0-.4-.4l0,0a.26.26,0,0,0,0,.34.29.29,0,0,0,.06.56h.07a.28.28,0,0,0,.27.37h.1l-.34.33a.25.25,0,0,0-.15-.05h0a.28.28,0,0,0-.22.46l-.32.33a.25.25,0,0,0-.26-.2.28.28,0,0,0-.22.45l-.08,0a.28.28,0,0,0-.15-.13.29.29,0,0,0,.06-.4h.09a.27.27,0,0,0,.26-.36.26.26,0,0,0,.26.18h0a.29.29,0,0,0,.22-.47h.07a.29.29,0,0,0,0-.57.27.27,0,0,0-.27.24.27.27,0,0,0-.26-.34h0a.29.29,0,0,0-.26.39.32.32,0,0,0-.22-.13.28.28,0,1,0-.18.05.24.24,0,0,0-.08.09h0a.25.25,0,0,0,0,.3l-.1,0a.29.29,0,0,0,0,.57.29.29,0,0,0,.16,0,.29.29,0,0,0,0,.52.31.31,0,0,0-.08.36.25.25,0,0,0-.16-.05.29.29,0,0,0-.24.44l-.09,0a.28.28,0,0,0-.27-.35h0a.25.25,0,0,0-.26-.2.27.27,0,0,0-.26.36.25.25,0,0,0-.15.1c-.09-.32-.2-.63-.3-.94a.28.28,0,0,0,.21-.29.27.27,0,0,0,.25-.15l.09,0a.29.29,0,0,0-.06.24.28.28,0,0,0-.37.26v.08a.29.29,0,0,0,.57,0v-.08s0,0,0,0l.08,0a.28.28,0,0,0,.19-.08.31.31,0,0,0,.07.09.29.29,0,0,0,.15.53h0a.28.28,0,0,0,.16,0,.28.28,0,0,0,.38-.26v0a.27.27,0,0,0-.31-.27.28.28,0,0,0-.15-.41.32.32,0,0,0,0-.37.26.26,0,0,0,.19-.08h0c.26-.26-.15-.67-.41-.41h0a.27.27,0,0,0,0,.38.29.29,0,0,0-.17.06.25.25,0,0,0-.13-.14.28.28,0,0,0-.06-.55.25.25,0,0,0-.16.05.27.27,0,0,0-.27-.26.27.27,0,0,0-.22.1.26.26,0,0,0-.27-.25.29.29,0,0,0,0,.57.24.24,0,0,0,.21-.1.27.27,0,0,0,.28.25.28.28,0,0,0,.16-.05.29.29,0,0,0,.13.22.28.28,0,0,0-.21.17.3.3,0,0,0-.26,0,.28.28,0,0,0-.26-.38.24.24,0,0,0-.23.14c-.1-.24-.21-.47-.31-.7h0a.29.29,0,0,0,0-.57.22.22,0,0,0-.21.11,18.65,18.65,0,0,0-1.89-3.15A.46.46,0,0,0,45.86,160Zm5.41,4.53a.25.25,0,0,0,.22.11h0a.25.25,0,0,0,.26-.21.27.27,0,0,0,.06.21h-.08a.28.28,0,0,0-.27.36.25.25,0,0,0-.25-.18h-.05l0-.05v0A.22.22,0,0,0,51.27,164.48Zm-1.33,15.88a.22.22,0,0,0,.09.07v0l-.11,0a.15.15,0,0,0-.07,0l0-.28A.36.36,0,0,0,49.94,180.36Zm-.15.62,0,0V181Zm-.89-16-.1,0s0-.1,0-.15l.08,0,.09,0a.29.29,0,0,0,0,.09v0Zm-2.68,25.27c0-.2,0-.4,0-.59a.3.3,0,0,0,.18.06h.07C46.41,189.9,46.31,190.08,46.22,190.22Zm1.05-2.29a.27.27,0,0,0-.19.26v.05a.21.21,0,0,0,0,.12l-.12.3a.28.28,0,0,0-.48-.15l0,0a.28.28,0,0,0,.39.41l-.1.25-.09-.05h-.05a.33.33,0,0,0-.33,0c0-.22,0-.44,0-.67l.1,0a.29.29,0,0,0,0-.57h-.06l0-.48.16.16a.24.24,0,0,0,.09.06.27.27,0,0,0,.25.17.29.29,0,0,0,.12-.55.24.24,0,0,0-.06-.08l0,0a.31.31,0,0,0,.16.06.3.3,0,0,0,.08.2.28.28,0,0,0,.27.07Zm1.41-6.05h.09a37.84,37.84,0,0,1-1.06,4.73.23.23,0,0,0-.21.15.21.21,0,0,0-.1.06l0,0a.29.29,0,0,0-.57,0v.05a.26.26,0,0,0,.06.16l-.08-.08a.25.25,0,0,0-.36,0,228.73,228.73,0,0,0-.21-25.33,21.84,21.84,0,0,1,3.2,11.81c0,1.49-.06,2.88-.16,4.2h0a.29.29,0,0,0,0,.57h0c-.1,1.1-.22,2.14-.36,3.11a.27.27,0,0,0-.12,0h0A.29.29,0,0,0,48.68,181.88Zm1,1.64a.34.34,0,0,0,0,.2.28.28,0,0,0-.13,0h0a.32.32,0,0,0-.17.06.39.39,0,0,0-.08-.1c0-.09,0-.17,0-.26A.29.29,0,0,0,49.71,183.52Zm-.79,1.9v0ZM49,185c0-.06,0-.12.05-.19a.22.22,0,0,0,.08.14A.29.29,0,0,0,49,185Zm.28.75h0l0,0Zm.64.19-.26-.07a.28.28,0,0,0,.22-.13H50a.29.29,0,0,0,.14,0l.08,0A.28.28,0,0,0,49.93,186Zm18.37-9.74a21.44,21.44,0,0,0-4.35,4c-.76.85-1.54,1.71-2.38,2.49,0,0,0,0,0,0l0-.08c.17-.33-.33-.62-.49-.29l0,.08a.29.29,0,0,0,.38.4c-.29.27-.6.53-.91.77l-.37.26a.29.29,0,0,0-.14,0,.27.27,0,0,0-.27.33c-.25.17-.51.32-.76.47a.3.3,0,0,0-.19-.08h0a.28.28,0,0,0-.27.35,12.5,12.5,0,0,1-4.44,1.37.28.28,0,0,0-.26-.36.28.28,0,0,0-.26.4l-.4,0a.31.31,0,0,0,.06-.16v0a.29.29,0,0,0-.58,0v0a.28.28,0,0,0,.06.16,10,10,0,0,1-1.09-.06.33.33,0,0,0,0-.15v0a.29.29,0,0,0-.57,0v0s0,.06,0,.08l-.51-.09a.28.28,0,0,0,0-.54.27.27,0,0,0-.26-.34.29.29,0,0,0-.14,0,.23.23,0,0,0-.19-.08.25.25,0,0,0-.23.14l-.09,0h-.12l-.1,0a.3.3,0,0,0-.08-.31.28.28,0,0,0,.25-.18.29.29,0,0,0,.48,0h.06a.29.29,0,0,0,0-.57h0a.27.27,0,0,0-.22.09.29.29,0,0,0-.29.15.28.28,0,0,0-.26-.37.33.33,0,0,0-.14,0l0-.08a.29.29,0,0,0,.13,0,.24.24,0,0,0,.23.14h0a.28.28,0,0,0,.24-.43.24.24,0,0,0,.12,0h.08a.29.29,0,1,0,.26-.16.24.24,0,0,0,.15-.24.27.27,0,0,0,.2.09.27.27,0,0,0,.18-.07.25.25,0,0,0,.26.23.27.27,0,0,0,.28-.29.33.33,0,0,0,.17-.08l0,0c.26-.26-.15-.66-.41-.4l0,0a.26.26,0,0,0-.08.21.19.19,0,0,0-.13.05.26.26,0,0,0-.27-.22.26.26,0,0,0-.27.25.29.29,0,0,0-.46.06.29.29,0,0,0-.48-.27h0l.06-.35a.28.28,0,0,0,.53-.14v-.06a.25.25,0,0,0-.07-.18.29.29,0,0,0-.23-.45.14.14,0,0,0-.09,0l.06-.44s0,0,0,0a.22.22,0,0,0,0,.16.29.29,0,0,0,.26.21,1.53,1.53,0,0,1,.38.54.26.26,0,0,0,.27.25.29.29,0,0,0,.15-.53.27.27,0,0,0-.25-.24.33.33,0,0,0-.09-.2.16.16,0,0,0,.07-.07.26.26,0,0,0,.22-.22.28.28,0,0,0-.06-.56h0a.3.3,0,0,0-.11-.07h0a.31.31,0,0,0,0-.17v0a.26.26,0,0,0-.16-.25.29.29,0,0,0-.07-.29.26.26,0,0,0-.46.07,1.64,1.64,0,0,1,0-.23l.1,0a.26.26,0,0,0,.26-.18.27.27,0,0,0,.27.34.26.26,0,0,0,.27-.28v.06a.29.29,0,0,0,.58,0v-.06a.29.29,0,0,0-.58,0,.27.27,0,0,0-.27-.29h0a.27.27,0,0,0,.08-.44l-.07-.07a.28.28,0,0,0,.38-.23.28.28,0,0,0,.44.06l.08-.08c.26-.26-.15-.66-.41-.4l-.08.08a.41.41,0,0,0-.07.11.29.29,0,0,0-.53.14v.06a.27.27,0,0,0,0,.12h0a.28.28,0,0,0-.32-.14l0-.46a.25.25,0,0,0,.25.19.28.28,0,0,0,.28-.32.26.26,0,0,0,.31-.26v-.06a.2.2,0,0,0,0-.11.29.29,0,0,0,.5-.19v0h.12a.29.29,0,0,0,0-.57h-.06a.26.26,0,0,0-.27.28.27.27,0,0,0-.36.26v0a.43.43,0,0,0,0,.11.41.41,0,0,0-.11-.07.33.33,0,0,0-.15,0,.24.24,0,0,0-.15,0,.32.32,0,0,0-.31.08s0-.05,0-.08l0,0h0c.49-.33,1-.65,1.5-.95a.28.28,0,0,0,.55-.07v0a.24.24,0,0,0-.06-.17l.68-.38a.26.26,0,0,0,.27.31.29.29,0,0,0,.15-.52A31.24,31.24,0,0,1,61.06,173a.27.27,0,0,0,.28.29.28.28,0,0,0,.25-.39l1-.19a23.06,23.06,0,0,1,7.84-.11,15.48,15.48,0,0,1,5.6,2.08A11.36,11.36,0,0,0,68.3,176.24Z"/><path d="M39.57,178.32v0a.29.29,0,0,0-.57,0v0A.29.29,0,0,0,39.57,178.32Z"/><path d="M39.21,180.05a.29.29,0,0,0,0-.57A.29.29,0,0,0,39.21,180.05Z"/><path d="M40,177.88a.29.29,0,0,0,0,.57A.29.29,0,0,0,40,177.88Z"/><path d="M39.85,177.24a.29.29,0,0,0,0-.58A.29.29,0,0,0,39.85,177.24Z"/><path d="M39.93,181.38a.29.29,0,0,0,0-.57A.29.29,0,0,0,39.93,181.38Z"/><path d="M39.53,179v0a.29.29,0,0,0,.57,0v0A.29.29,0,0,0,39.53,179Z"/><path d="M39.7,180.47a.29.29,0,0,0,0-.57A.29.29,0,0,0,39.7,180.47Z"/><path d="M38.76,181.91a.25.25,0,0,0-.17-.06.29.29,0,0,0,0,.57.29.29,0,0,0,.22-.46A.24.24,0,0,0,39,182h0a.29.29,0,0,0,0-.58h0A.29.29,0,0,0,38.76,181.91Z"/><path d="M40.12,182.29a.29.29,0,0,0,0,.57A.29.29,0,0,0,40.12,182.29Z"/><path d="M40.46,181.71h0a.26.26,0,0,0,.24.27.29.29,0,0,0,.14.54.29.29,0,0,0,0-.57.25.25,0,0,0,.14-.24v0a.26.26,0,0,0-.21-.26.26.26,0,0,0-.27-.28A.29.29,0,0,0,40.46,181.71Z"/><path d="M39.5,182.54v0a.29.29,0,0,0-.58,0v0A.29.29,0,0,0,39.5,182.54Z"/><path d="M39.12,183.14a.29.29,0,0,0,0,.57A.29.29,0,0,0,39.12,183.14Z"/><path d="M40.22,183.39l0,0a.24.24,0,0,0-.2,0,.26.26,0,0,0,0-.38l0,0a.28.28,0,0,0-.4.4l0,0a.27.27,0,0,0,.26.07.26.26,0,0,0,.06.42l0,0C40.25,184.05,40.54,183.56,40.22,183.39Z"/><path d="M41.21,185.24a.29.29,0,0,0,0,.57A.29.29,0,0,0,41.21,185.24Z"/><path d="M40.41,185a.29.29,0,0,0,0,.57A.29.29,0,0,0,40.41,185Z"/><path d="M39.68,184.15a.29.29,0,0,0,0,.57A.29.29,0,0,0,39.68,184.15Z"/><path d="M39,184.28v0a.29.29,0,0,0-.57,0v0A.29.29,0,0,0,39,184.28Z"/><path d="M37.51,184.71v0a.29.29,0,0,0,.57,0v0A.29.29,0,0,0,37.51,184.71Z"/><path d="M38.39,185.2a.29.29,0,0,0,0,.57A.29.29,0,0,0,38.39,185.2Z"/><path d="M38.87,185.21a.29.29,0,0,0,0-.57A.29.29,0,0,0,38.87,185.21Z"/><path d="M38.93,185.52a.29.29,0,0,0,0,.57A.29.29,0,0,0,38.93,185.52Z"/><path d="M39.83,185.57a.29.29,0,0,0,0,.57A.29.29,0,0,0,39.83,185.57Z"/><path d="M38,183a.29.29,0,0,0,.57,0v0a.29.29,0,0,0-.57,0Z"/><path d="M38.16,184a.29.29,0,0,0,0-.57A.29.29,0,0,0,38.16,184Z"/><path d="M36.85,183.59h0a.29.29,0,0,0,0,.57h0A.29.29,0,0,0,36.85,183.59Z"/><path d="M36.82,184.58a.29.29,0,0,0,0,.57A.29.29,0,0,0,36.82,184.58Z"/><path d="M37.58,182.56a.29.29,0,0,0,0,.57A.29.29,0,0,0,37.58,182.56Z"/><path d="M36.18,183a.29.29,0,0,0,0,.57A.29.29,0,0,0,36.18,183Z"/><path d="M35.79,184a.29.29,0,0,0,0,.57A.29.29,0,0,0,35.79,184Z"/><path d="M36,184.88a.29.29,0,0,0,0,.57A.29.29,0,0,0,36,184.88Z"/><path d="M34.89,184.68a.29.29,0,0,0,0,.58A.29.29,0,0,0,34.89,184.68Z"/><path d="M36.55,182.13a.29.29,0,0,0,0,.57A.29.29,0,0,0,36.55,182.13Z"/><path d="M37.13,180.86a.29.29,0,0,0,0,.57A.29.29,0,0,0,37.13,180.86Z"/><path d="M37.79,182.27a.29.29,0,0,0,0-.57A.29.29,0,0,0,37.79,182.27Z"/><path d="M38.37,181.52h.05a.29.29,0,0,0,0-.58h-.05A.29.29,0,0,0,38.37,181.52Z"/><path d="M38.42,180.87a.29.29,0,0,0,0-.57A.29.29,0,0,0,38.42,180.87Z"/><path d="M39.19,181h0a.29.29,0,0,0,0-.58h0A.29.29,0,0,0,39.19,181Z"/><path d="M37.9,179.48a.29.29,0,0,0,0,.57A.29.29,0,0,0,37.9,179.48Z"/><path d="M37,179.52a.29.29,0,0,0,0,.58A.29.29,0,0,0,37,179.52Z"/><path d="M37.41,178.32a.26.26,0,0,0-.25.16.3.3,0,0,0-.16,0,.29.29,0,0,0,0,.57.24.24,0,0,0,.24-.16.31.31,0,0,0,.17,0A.29.29,0,0,0,37.41,178.32Z"/><path d="M38.26,178.68a.29.29,0,0,0,0-.57A.29.29,0,0,0,38.26,178.68Z"/><path d="M38.24,179.12v.09a.29.29,0,0,0,.57,0v-.09A.29.29,0,0,0,38.24,179.12Z"/><path d="M38.82,177.28a.29.29,0,0,0,0-.57A.29.29,0,0,0,38.82,177.28Z"/><path d="M37.64,177a.29.29,0,0,0,0-.57A.29.29,0,0,0,37.64,177Z"/><path d="M37.74,177.2c-.26.26.14.67.4.41l0,0c.26-.26-.15-.66-.41-.4Z"/><path d="M36.48,177.73a.29.29,0,0,0,0-.57A.29.29,0,0,0,36.48,177.73Z"/><path d="M38.67,176.44a.29.29,0,0,0,0-.57A.29.29,0,0,0,38.67,176.44Z"/><path d="M36.34,181.42v-.06a.29.29,0,0,0-.58,0v.06A.29.29,0,0,0,36.34,181.42Z"/><path d="M36.38,180.26a.29.29,0,0,0-.57,0v0a.29.29,0,0,0,.57,0Z"/><path d="M37.88,180.31v0a.29.29,0,0,0-.57,0v0A.29.29,0,0,0,37.88,180.31Z"/><path d="M35.24,180.82v0a.29.29,0,0,0-.57,0v0a.27.27,0,0,0,.07.19.24.24,0,0,0-.17-.07.29.29,0,1,0,.21.1A.28.28,0,0,0,35.24,180.82Z"/><path d="M32.89,182.4a.29.29,0,0,0,0-.57A.29.29,0,0,0,32.89,182.4Z"/><path d="M33.6,183.29a.29.29,0,0,0,0,.57A.29.29,0,0,0,33.6,183.29Z"/><path d="M34.4,182.26a.29.29,0,0,0,0,.57A.29.29,0,0,0,34.4,182.26Z"/><path d="M35.28,182.64h0a.29.29,0,0,0,0,.57h0A.29.29,0,0,0,35.28,182.64Z"/><path d="M35.6,182.1a.29.29,0,0,0,0-.58A.29.29,0,0,0,35.6,182.1Z"/><path d="M31.94,182.6a.29.29,0,0,0,0,.57A.29.29,0,0,0,31.94,182.6Z"/><path d="M30.66,181.8a.29.29,0,0,0,0,.58A.29.29,0,0,0,30.66,181.8Z"/><path d="M32.6,184.37v0a.29.29,0,0,0,.58,0v0A.29.29,0,0,0,32.6,184.37Z"/><path d="M33.86,184.71a.29.29,0,0,0,0,.57A.29.29,0,0,0,33.86,184.71Z"/><path d="M32.57,182.94a.29.29,0,0,0,0,.57A.29.29,0,0,0,32.57,182.94Z"/><path d="M34.68,184h0a.29.29,0,1,0-.15-.05h0a.29.29,0,1,0,.16.05Z"/><path d="M33.64,181a.29.29,0,0,0,0-.57h0a.29.29,0,0,0,0,.57Z"/><path d="M31.69,181.09a.29.29,0,0,0,0-.58A.29.29,0,0,0,31.69,181.09Z"/><path d="M31.67,181.65a.29.29,0,0,0,0,.57A.29.29,0,0,0,31.67,181.65Z"/><path d="M30.53,180.34a.29.29,0,0,0,0,.57A.29.29,0,0,0,30.53,180.34Z"/><path d="M28.82,180.69v0a.29.29,0,0,0,.57,0v0A.29.29,0,0,0,28.82,180.69Z"/><path d="M29.52,179a.29.29,0,0,0,0,.57A.29.29,0,0,0,29.52,179Z"/><path d="M30.66,179a.29.29,0,0,0,0-.57A.29.29,0,0,0,30.66,179Z"/><path d="M32.35,179.29a.29.29,0,0,0,0,.57A.29.29,0,0,0,32.35,179.29Z"/><path d="M31.13,179.52a.29.29,0,0,0,0,.58A.29.29,0,0,0,31.13,179.52Z"/><path d="M32.31,178.51a.29.29,0,0,0,0-.58A.29.29,0,0,0,32.31,178.51Z"/><path d="M31.71,177.39a.29.29,0,0,0,0-.57A.29.29,0,0,0,31.71,177.39Z"/><path d="M33.06,177a.29.29,0,0,0,0-.57A.29.29,0,0,0,33.06,177Z"/><path d="M34.24,177.25a.29.29,0,0,0,0,.57A.29.29,0,0,0,34.24,177.25Z"/><path d="M33.8,178.71v0a.29.29,0,0,0-.57,0v0A.29.29,0,0,0,33.8,178.71Z"/><path d="M34.57,179.27a.28.28,0,0,0-.18.48l0,0c.26.26.66-.15.4-.41h0a.29.29,0,0,0,0-.57A.29.29,0,0,0,34.57,179.27Z"/><path d="M36,179.17a.29.29,0,0,0,0-.57A.29.29,0,0,0,36,179.17Z"/><path d="M35,177.15a.29.29,0,0,0,0-.57A.29.29,0,0,0,35,177.15Z"/><path d="M34.33,175.67a.29.29,0,0,0,0-.57A.29.29,0,0,0,34.33,175.67Z"/><path d="M33.23,175.47a.29.29,0,0,0,0-.57A.29.29,0,0,0,33.23,175.47Z"/><path d="M33.94,176.55a.29.29,0,0,0,0-.57A.29.29,0,0,0,33.94,176.55Z"/><path d="M35.47,175.85a.29.29,0,0,0,0,.57A.29.29,0,0,0,35.47,175.85Z"/><path d="M35.43,175a.29.29,0,0,0,0-.57A.29.29,0,0,0,35.43,175Z"/><path d="M36.67,175.58a.29.29,0,0,0,0-.57A.29.29,0,0,0,36.67,175.58Z"/><path d="M36.65,176.61a.29.29,0,0,0,0-.57A.29.29,0,0,0,36.65,176.61Z"/><path d="M35.3,177.68a.29.29,0,0,0,0,.57A.29.29,0,0,0,35.3,177.68Z"/><path d="M35.58,180.23a.29.29,0,0,0,0-.58A.29.29,0,0,0,35.58,180.23Z"/><path d="M33.9,179.89a.29.29,0,0,0,0,.57A.29.29,0,0,0,33.9,179.89Z"/><path d="M33.75,182.4a.29.29,0,0,0,0-.57A.29.29,0,0,0,33.75,182.4Z"/><path d="M40,181.67a.29.29,0,0,0,0,.58h0a.29.29,0,0,0,0-.58Z"/><path d="M39.26,177.56c.11.35.67.2.55-.15l0-.06c-.12-.35-.67-.2-.55.15Z"/><path d="M40.37,177.77a.29.29,0,0,0,0-.57A.29.29,0,0,0,40.37,177.77Z"/><path d="M40.35,184a.29.29,0,0,0,0,.57A.29.29,0,0,0,40.35,184Z"/><path d="M39.88,185.14v-.06a.29.29,0,0,0-.57,0v.06A.29.29,0,0,0,39.88,185.14Z"/><path d="M35.26,173.17a.28.28,0,0,0,.26-.38.29.29,0,0,0,.51-.17v0a.29.29,0,0,0-.57,0v0a.15.15,0,0,0,0,.08.27.27,0,0,0-.22-.1A.29.29,0,0,0,35.26,173.17Z"/><path d="M37.33,173.88a.28.28,0,0,0,.13,0,.29.29,0,0,0,0-.58.17.17,0,0,0-.1,0,.28.28,0,0,0-.44.23v0A.28.28,0,0,0,37.33,173.88Z"/><path d="M36.4,172.4l0,0a.28.28,0,0,0-.4-.4l0,0C35.74,172.26,36.14,172.67,36.4,172.4Z"/><path d="M40.45,173a.29.29,0,0,0-.14.54.29.29,0,0,0,.07.56.29.29,0,0,0,.14-.54A.29.29,0,0,0,40.45,173Z"/><path d="M41,173.36a.29.29,0,0,0,0-.57A.29.29,0,0,0,41,173.36Z"/><path d="M40.45,172a.29.29,0,0,0-.24.44.26.26,0,0,0-.19.22.25.25,0,0,0-.25-.17h0a.29.29,0,0,0,0,.57h0a.25.25,0,0,0,.26-.23.27.27,0,0,0,.26.17.89.89,0,0,0,.16-1Z"/><path d="M39.48,172.1a.29.29,0,0,0,0-.57.28.28,0,0,0-.27.37l-.09,0a.29.29,0,0,0,0,.58.28.28,0,0,0,.26-.38Z"/><path d="M38.57,171.24a.29.29,0,0,0,0,.57A.29.29,0,0,0,38.57,171.24Z"/><path d="M33.51,172.27a.29.29,0,0,0,0,.58A.29.29,0,0,0,33.51,172.27Z"/><path d="M33.54,171.5a.25.25,0,0,0-.16.05.26.26,0,0,0-.26-.18h0a.29.29,0,0,0,0,.57h0a.26.26,0,0,0,.16-.06.26.26,0,0,0,.26.19A.29.29,0,0,0,33.54,171.5Z"/><path d="M34.35,172.11a.29.29,0,0,0,0,.57A.29.29,0,0,0,34.35,172.11Z"/><path d="M34.93,172.26h0a.29.29,0,0,0,0-.57h0A.29.29,0,0,0,34.93,172.26Z"/><path d="M35.62,171.68a.29.29,0,0,0,0-.57A.29.29,0,0,0,35.62,171.68Z"/><path d="M37.82,170.33a.29.29,0,0,0,0,.57A.29.29,0,0,0,37.82,170.33Z"/><path d="M38.57,170.87a.28.28,0,0,0,.16-.06.28.28,0,0,0,.26.38h0a.29.29,0,0,0,0-.57h0a.25.25,0,0,0-.16,0,.28.28,0,0,0-.26-.37A.29.29,0,0,0,38.57,170.87Z"/><path d="M39.35,170.07a.29.29,0,0,0,0,.57h0a.29.29,0,0,0,0-.57Z"/><path d="M39.67,170.81a.29.29,0,0,0,0,.58A.29.29,0,0,0,39.67,170.81Z"/><path d="M40.55,171.68a.29.29,0,0,0,0-.57A.29.29,0,0,0,40.55,171.68Z"/><path d="M40.54,170.22l0,0c-.27.26.14.66.4.4l0,0A.28.28,0,0,0,40.54,170.22Z"/><path d="M39.67,169a.29.29,0,0,0,0,.57A.29.29,0,0,0,39.67,169Z"/><path d="M40.55,169.39a.29.29,0,0,0,0,.57A.29.29,0,0,0,40.55,169.39Z"/><path d="M40.12,170.1a.29.29,0,0,0,0,.57A.29.29,0,0,0,40.12,170.1Z"/><path d="M40,168.76a.29.29,0,0,0,0-.57A.29.29,0,0,0,40,168.76Z"/><path d="M40.48,169.28a.29.29,0,0,0,0-.57A.29.29,0,0,0,40.48,169.28Z"/><path d="M39.6,168a.29.29,0,0,0,0-.57A.29.29,0,0,0,39.6,168Z"/><path d="M38.86,168.83l-.07.06a.29.29,0,0,0,.41.41l.06-.07A.28.28,0,0,0,38.86,168.83Z"/><path d="M37.92,169.58a.29.29,0,0,0,0,.57A.29.29,0,0,0,37.92,169.58Z"/><path d="M36.72,169.55a.29.29,0,0,0,0,.57A.29.29,0,0,0,36.72,169.55Z"/><path d="M37.24,170.3a.29.29,0,0,0,0,.57A.29.29,0,0,0,37.24,170.3Z"/><path d="M33.28,170.81a.29.29,0,0,0,0,.58A.29.29,0,0,0,33.28,170.81Z"/><path d="M34.45,171.71a.29.29,0,0,0,0-.57A.29.29,0,0,0,34.45,171.71Z"/><path d="M32.34,171.92a.29.29,0,0,0,0,.57A.29.29,0,0,0,32.34,171.92Z"/><path d="M30.39,171a.29.29,0,0,0,0-.57A.29.29,0,0,0,30.39,171Z"/><path d="M31.48,171.41c.33-.16,0-.66-.29-.49l-.06,0c-.33.17,0,.66.28.49Z"/><path d="M31.52,171.57l-.07,0c-.33.17,0,.66.29.5l.06,0C32.13,171.9,31.84,171.4,31.52,171.57Z"/><path d="M32,171.16a.25.25,0,0,0,.24-.16s0,0,0,.07v0a.29.29,0,0,0,.57,0v0a.29.29,0,0,0-.54-.13.27.27,0,0,0-.26-.35A.29.29,0,0,0,32,171.16Z"/><path d="M31.66,170.48a.29.29,0,0,0,0-.57h0a.29.29,0,0,0,0,.57Z"/><path d="M33.44,169.83a.29.29,0,0,0,0-.57A.29.29,0,0,0,33.44,169.83Z"/><path d="M34.16,170.46l0,0c.26-.26-.15-.67-.41-.41l0,0C33.5,170.32,33.9,170.72,34.16,170.46Z"/><path d="M32.83,170.35a.29.29,0,0,0,0-.57A.29.29,0,0,0,32.83,170.35Z"/><path d="M36.65,169.25v0a.29.29,0,0,0-.57,0v0A.29.29,0,0,0,36.65,169.25Z"/><path d="M38.21,168.77a.29.29,0,0,0,0,.57A.29.29,0,0,0,38.21,168.77Z"/><path d="M38.83,169.42h0a.29.29,0,0,0,0,.57h0A.29.29,0,0,0,38.83,169.42Z"/><path d="M37.72,167.47a.29.29,0,0,0,0,.58A.29.29,0,0,0,37.72,167.47Z"/><path d="M36.88,168.27c-.28.25.13.65.4.41l0,0c.28-.25-.13-.65-.4-.41Z"/><path d="M35.65,167a.29.29,0,0,0,0,.57A.29.29,0,0,0,35.65,167Z"/><path d="M36.78,166.47a.29.29,0,0,0,0,.57h0a.29.29,0,0,0,0-.57Z"/><path d="M36.17,165.87a.29.29,0,0,0,0-.57A.29.29,0,0,0,36.17,165.87Z"/><path d="M35.62,165.85a.29.29,0,0,0,0,.57h0a.29.29,0,0,0,0-.57Z"/><path d="M34.42,166.91h0a.29.29,0,0,0,0-.57h0A.29.29,0,0,0,34.42,166.91Z"/><path d="M34,165.72a.29.29,0,0,0,0,.57A.29.29,0,0,0,34,165.72Z"/><path d="M37.59,166a.29.29,0,0,0,0-.57A.29.29,0,0,0,37.59,166Z"/><path d="M39.11,167v0a.29.29,0,0,0-.57,0v0A.29.29,0,0,0,39.11,167Z"/><path d="M38.53,168.24a.29.29,0,0,0,0-.57A.29.29,0,0,0,38.53,168.24Z"/><path d="M30,169.84a.29.29,0,0,0-.58,0v.06a.29.29,0,0,0,.58,0Z"/><path d="M28.81,169.1a.29.29,0,0,0,0,.57A.29.29,0,0,0,28.81,169.1Z"/><path d="M29.23,167.9a.29.29,0,0,0,0,.57A.29.29,0,0,0,29.23,167.9Z"/><path d="M29.92,167.74c.17.33.66,0,.49-.29l0-.06c-.16-.33-.66,0-.49.29Z"/><path d="M31.14,169.15a.29.29,0,0,0,0-.57A.29.29,0,0,0,31.14,169.15Z"/><path d="M29.45,166.2a.29.29,0,0,0,0-.57A.29.29,0,0,0,29.45,166.2Z"/><path d="M28.19,165.53a.29.29,0,0,0,0,.57A.29.29,0,0,0,28.19,165.53Z"/><path d="M29.23,164.61a.29.29,0,0,0,0-.57A.29.29,0,0,0,29.23,164.61Z"/><path d="M31.37,166.78a.29.29,0,0,0,0-.57A.29.29,0,0,0,31.37,166.78Z"/><path d="M32.66,168.69a.29.29,0,0,0,0-.57A.29.29,0,0,0,32.66,168.69Z"/><path d="M31.66,168a.29.29,0,0,0,0-.57A.29.29,0,0,0,31.66,168Z"/><path d="M29.46,168.89v0a.29.29,0,0,0,.57,0v0A.29.29,0,0,0,29.46,168.89Z"/><path d="M27.93,166.79a.29.29,0,0,0,0,.57A.29.29,0,0,0,27.93,166.79Z"/><path d="M32.8,164.1v0a.29.29,0,0,0,.57,0v0A.29.29,0,0,0,32.8,164.1Z"/><path d="M31.63,162.61a.29.29,0,0,0,0,.57A.29.29,0,0,0,31.63,162.61Z"/><path d="M31.3,161.41a.29.29,0,0,0,0,.57A.29.29,0,0,0,31.3,161.41Z"/><path d="M33.73,163a.29.29,0,0,0,0-.57h0a.29.29,0,0,0,0,.57Z"/><path d="M32.92,164.85a.29.29,0,0,0,0,.57A.29.29,0,0,0,32.92,164.85Z"/><path d="M34.91,164.72l0,0c.26-.26-.14-.67-.4-.41l0,0C34.25,164.57,34.65,165,34.91,164.72Z"/><path d="M36.56,165a.29.29,0,0,0,0-.57A.29.29,0,0,0,36.56,165Z"/><path d="M35.45,164h0a.29.29,0,0,0,0-.57h0A.29.29,0,0,0,35.45,164Z"/><path d="M36.26,167.57a.29.29,0,0,0,0,.57A.29.29,0,0,0,36.26,167.57Z"/><path d="M38,166.88a.29.29,0,0,0,0-.57A.29.29,0,0,0,38,166.88Z"/><path d="M44.71,186.5a.28.28,0,0,0-.24-.42.29.29,0,0,0,0,.57.29.29,0,0,0,.24.43h0a.29.29,0,0,0,0-.58Z"/><path d="M43.72,184.35a.29.29,0,0,0,0,.57A.29.29,0,0,0,43.72,184.35Z"/><path d="M44.24,184.27a.29.29,0,0,0,0-.57A.29.29,0,0,0,44.24,184.27Z"/><path d="M44.8,184.82a.29.29,0,0,0,0,.57A.29.29,0,0,0,44.8,184.82Z"/><path d="M45.31,184.21a.29.29,0,0,0,0,.57A.29.29,0,0,0,45.31,184.21Z"/><path d="M45.27,182.67a.29.29,0,0,0,0,.57A.29.29,0,0,0,45.27,182.67Z"/><path d="M45.36,181.59a.29.29,0,0,0,0,.57A.29.29,0,0,0,45.36,181.59Z"/><path d="M47.11,186,47,186h0a.29.29,0,0,0,0,.57h0a.26.26,0,0,0,.15,0l.14-.05C47.6,186.38,47.46,185.83,47.11,186Z"/><path d="M47.37,185.48v.05a.29.29,0,0,0,.57,0v-.05A.29.29,0,0,0,47.37,185.48Z"/><path d="M46.9,185.86a.28.28,0,0,0,.27-.37.56.56,0,0,0,0-.13c0-.06,0-.12-.05-.19-.08-.36-.63-.2-.55.15l0,.19s0,0,0,0A.27.27,0,0,0,46.9,185.86Z"/><path d="M47,184.36a.29.29,0,0,0,0-.57A.29.29,0,0,0,47,184.36Z"/><path d="M47.51,184.13a.29.29,0,0,0,0-.57A.29.29,0,0,0,47.51,184.13Z"/><path d="M47.7,184.45a.29.29,0,0,0,0,.57A.29.29,0,0,0,47.7,184.45Z"/><path d="M47.74,183.19v.05a.29.29,0,0,0,.57,0v-.05A.29.29,0,0,0,47.74,183.19Z"/><path d="M47,183.33a.29.29,0,0,0,0-.57A.29.29,0,0,0,47,183.33Z"/><path d="M47.37,182a.29.29,0,0,0,0-.57A.29.29,0,0,0,47.37,182Z"/><path d="M47.84,180.8a.29.29,0,0,0,0,.57A.29.29,0,0,0,47.84,180.8Z"/><path d="M48.45,180.33a.29.29,0,0,0,0,.57A.29.29,0,0,0,48.45,180.33Z"/><path d="M37.38,178.06l.09-.09c.27-.26-.14-.66-.4-.41l-.1.1C36.71,177.91,37.11,178.32,37.38,178.06Z"/><path d="M36.1,178.37h0a.29.29,0,0,0,0-.57h0A.29.29,0,0,0,36.1,178.37Z"/><path d="M43.72,181.28a.29.29,0,0,0,0-.58A.29.29,0,0,0,43.72,181.28Z"/><path d="M43.68,183v-.09a.29.29,0,0,0-.57,0V183A.29.29,0,0,0,43.68,183Z"/><path d="M43.44,183.56a.29.29,0,0,0,0,.57A.29.29,0,0,0,43.44,183.56Z"/><path d="M44.62,182.91v-.1a.29.29,0,0,0-.58,0v.1A.29.29,0,0,0,44.62,182.91Z"/><path d="M45,184.18a.29.29,0,0,0,0-.58A.29.29,0,0,0,45,184.18Z"/><path d="M44.52,181.64a.29.29,0,0,0,0,.57A.29.29,0,0,0,44.52,181.64Z"/><path d="M44,184.91a.29.29,0,0,0,0,.58A.29.29,0,0,0,44,184.91Z"/><path d="M43.3,181.92a.29.29,0,0,0,0,.57A.29.29,0,0,0,43.3,181.92Z"/><path d="M44.56,181.09a.29.29,0,0,0,0-.57A.29.29,0,0,0,44.56,181.09Z"/><path d="M45.31,180a.29.29,0,0,0,0-.58A.29.29,0,0,0,45.31,180Z"/><path d="M43.49,180.11a.29.29,0,0,0,0-.58A.29.29,0,0,0,43.49,180.11Z"/><path d="M42.83,179a.29.29,0,0,0,0,.57A.29.29,0,0,0,42.83,179Z"/><path d="M42.88,178h0a.29.29,0,0,0,0-.57h0A.29.29,0,0,0,42.88,178Z"/><path d="M44.05,178.47a.29.29,0,0,0,0-.57A.29.29,0,0,0,44.05,178.47Z"/><path d="M44.84,177a.29.29,0,0,0,0,.57A.29.29,0,0,0,44.84,177Z"/><path d="M44.56,176h0a.29.29,0,0,0,0,.57h0A.29.29,0,0,0,44.56,176Z"/><path d="M43.53,175.32a.29.29,0,0,0,0,.58A.29.29,0,0,0,43.53,175.32Z"/><path d="M47.42,179.87a.29.29,0,0,0,0-.57A.29.29,0,0,0,47.42,179.87Z"/><path d="M48,182.54a.29.29,0,0,0,0-.57h0a.29.29,0,0,0,0,.57Z"/><path d="M48.45,179.12a.29.29,0,0,0,0-.57A.29.29,0,0,0,48.45,179.12Z"/><path d="M47,178.56a.29.29,0,0,0,0-.57A.29.29,0,0,0,47,178.56Z"/><path d="M47.56,177a.29.29,0,0,0,0-.57A.29.29,0,0,0,47.56,177Z"/><path d="M48.68,176.4a.29.29,0,0,0,0,.57A.29.29,0,0,0,48.68,176.4Z"/><path d="M48.21,177.34a.29.29,0,0,0,0,.57A.29.29,0,0,0,48.21,177.34Z"/><path d="M48,175.47a.29.29,0,0,0,0-.57A.29.29,0,0,0,48,175.47Z"/><path d="M47.32,174.87a.29.29,0,0,0,0-.58A.29.29,0,0,0,47.32,174.87Z"/><path d="M47.23,173a.24.24,0,0,0,.23-.13.41.41,0,0,0,.57-.58.26.26,0,0,0-.27.25.26.26,0,0,0-.26.13.27.27,0,0,0-.27-.24A.29.29,0,0,0,47.23,173Z"/><path d="M48.68,174.21a.29.29,0,0,0,0-.57A.29.29,0,0,0,48.68,174.21Z"/><path d="M49,174.62a.29.29,0,0,0,0,.57A.29.29,0,0,0,49,174.62Z"/><path d="M43.86,174.4a.29.29,0,0,0,0-.57A.29.29,0,0,0,43.86,174.4Z"/><path d="M45.17,173.5a.29.29,0,0,0,0,.57A.29.29,0,0,0,45.17,173.5Z"/><path d="M45.17,174.81a.29.29,0,0,0,0,.57A.29.29,0,0,0,45.17,174.81Z"/><path d="M45.36,177.9v0a.29.29,0,0,0-.57,0v0A.29.29,0,0,0,45.36,177.9Z"/><path d="M44.42,178.83a.29.29,0,0,0,0,.57A.29.29,0,0,0,44.42,178.83Z"/><path d="M42.73,176.22v0a.29.29,0,0,0,.58,0v0A.29.29,0,0,0,42.73,176.22Z"/><path d="M42.93,174.16a.29.29,0,0,0,0-.57A.29.29,0,0,0,42.93,174.16Z"/><path d="M44.1,173a.29.29,0,0,0,0-.57A.29.29,0,0,0,44.1,173Z"/><path d="M43.3,171.17a.29.29,0,0,0,0-.57A.29.29,0,0,0,43.3,171.17Z"/><path d="M44.42,168.78a.29.29,0,0,0,0-.57A.29.29,0,0,0,44.42,168.78Z"/><path d="M44.88,170.62c.26.26.66-.14.4-.41l-.05,0a.28.28,0,0,0-.4.4Z"/><path d="M45.12,166.86a.29.29,0,0,0,0,.57h.05a.29.29,0,0,0,0-.57Z"/><path d="M47.23,171.22a.29.29,0,0,0,0-.57A.29.29,0,0,0,47.23,171.22Z"/><path d="M47.7,173.64a.29.29,0,0,0,0,.57A.29.29,0,0,0,47.7,173.64Z"/><path d="M49,171.87a.29.29,0,0,0,0-.57A.29.29,0,0,0,49,171.87Z"/><path d="M48.26,169.53a.29.29,0,0,0,0-.57A.29.29,0,0,0,48.26,169.53Z"/><path d="M48.35,168.08a.29.29,0,0,0,0-.57A.29.29,0,0,0,48.35,168.08Z"/><path d="M51,173.75a.29.29,0,0,0-.21-.48.28.28,0,0,0-.25.39l-.09.06-.05.05a.29.29,0,0,0,.31.47l0,0c.31.2.6-.29.29-.5Z"/><path d="M51.91,172.56h0a.29.29,0,0,0-.22.46.29.29,0,1,0,.27-.46Z"/><path d="M51,171.09a.29.29,0,0,0-.55.15l0,.19a.29.29,0,0,0,.55-.15Z"/><path d="M51.07,169.53a.29.29,0,0,0,0-.57A.29.29,0,0,0,51.07,169.53Z"/><path d="M51.35,170.75a.29.29,0,0,0,0-.57A.29.29,0,0,0,51.35,170.75Z"/><path d="M51.91,171.11a.29.29,0,0,0,0,.57H52a.29.29,0,0,0,0-.57Z"/><path d="M52.8,171.3a.29.29,0,0,0,0,.57A.29.29,0,0,0,52.8,171.3Z"/><path d="M52.94,170.74a.29.29,0,0,0,0,.57A.29.29,0,0,0,52.94,170.74Z"/><path d="M52.33,170.28a.29.29,0,0,0,0-.57A.29.29,0,0,0,52.33,170.28Z"/><path d="M52.56,172.19a.29.29,0,0,0,0,.57A.29.29,0,0,0,52.56,172.19Z"/><path d="M51.3,171.63a.29.29,0,0,0,0,.57A.29.29,0,0,0,51.3,171.63Z"/><path d="M51.66,169.19v.05a.29.29,0,0,0,.57,0v-.05A.29.29,0,0,0,51.66,169.19Z"/><path d="M53,169.76a.29.29,0,0,0,0-.57A.29.29,0,0,0,53,169.76Z"/><path d="M53.5,170.66a.29.29,0,0,0,0-.57A.29.29,0,0,0,53.5,170.66Z"/><path d="M54.59,169.52a.29.29,0,0,0,0,.57A.29.29,0,0,0,54.59,169.52Z"/><path d="M53.69,170.79a.29.29,0,0,0,0,.58A.29.29,0,0,0,53.69,170.79Z"/><path d="M54.07,173a.27.27,0,0,0-.27.31.28.28,0,0,0,.22.45.26.26,0,0,0,.27-.31A.28.28,0,0,0,54.07,173Z"/><path d="M54.59,172.73a.29.29,0,0,0-.13.54.28.28,0,0,0,.18.5.29.29,0,0,0,.13-.54A.29.29,0,0,0,54.59,172.73Z"/><path d="M56,172.59a.28.28,0,0,0-.24.13v-.08a.29.29,0,0,0-.57,0v.09a.29.29,0,0,0,.53.15.27.27,0,0,0,.28.28A.29.29,0,0,0,56,172.59Z"/><path d="M56.24,172a.29.29,0,0,0,0,.58A.29.29,0,0,0,56.24,172Z"/><path d="M56.05,171.55v0a.29.29,0,0,0,.57,0v0A.29.29,0,0,0,56.05,171.55Z"/><path d="M55.58,171.22a.29.29,0,0,0,0,.57A.29.29,0,0,0,55.58,171.22Z"/><path d="M56.81,170.7a.29.29,0,0,0,0,.57A.29.29,0,0,0,56.81,170.7Z"/><path d="M57.53,171.49c-.26-.26-.67.15-.41.41l.05,0c.26.26.67-.14.41-.4Z"/><path d="M58.51,172.12a.26.26,0,0,0-.19.07.29.29,0,0,0-.19-.07.29.29,0,0,0,0,.57.26.26,0,0,0,.19-.08.23.23,0,0,0,.19.08A.29.29,0,0,0,58.51,172.12Z"/><path d="M57.23,172h0a.29.29,0,0,0,0,.57h0A.29.29,0,0,0,57.23,172Z"/><path d="M58.08,171.79a.29.29,0,0,0,0-.57A.29.29,0,0,0,58.08,171.79Z"/><path d="M59.42,171.11a.27.27,0,0,0-.14-.07.28.28,0,0,0-.25-.39.28.28,0,0,0-.07.56.26.26,0,0,0,0,.31l.05,0c.26.26.66-.15.4-.41Z"/><path d="M60.49,172.07h0a.29.29,0,0,0,0-.57h0A.29.29,0,0,0,60.49,172.07Z"/><path d="M58.23,170.8v-.05s0,0,0,0a.29.29,0,0,0,.14,0,.29.29,0,0,0,0-.57.27.27,0,0,0-.26.34.29.29,0,0,0-.45.23v.05A.29.29,0,0,0,58.23,170.8Z"/><path d="M57.61,169.9a.29.29,0,0,0,.23-.45l0,0c.33.17.62-.32.29-.49l-.09-.05a.3.3,0,0,0-.39.41l-.09,0A.29.29,0,0,0,57.61,169.9Z"/><path d="M56.76,170.52a.25.25,0,0,0,.21-.11.25.25,0,0,0,.17.06.29.29,0,0,0,0-.57.27.27,0,0,0-.22.1.26.26,0,0,0-.16-.06A.29.29,0,0,0,56.76,170.52Z"/><path d="M59.83,170.75a.29.29,0,0,0,0-.57A.29.29,0,0,0,59.83,170.75Z"/><path d="M52.37,172a.29.29,0,0,0-.57,0v0a.29.29,0,0,0,.57,0Z"/><path d="M53.17,168.68a.29.29,0,0,0,0-.58A.29.29,0,0,0,53.17,168.68Z"/><path d="M51.72,168.31l.05-.05a.28.28,0,0,0-.4-.4l0,0C51.06,168.17,51.46,168.57,51.72,168.31Z"/><path d="M53.31,166.84a.29.29,0,0,0,0-.58A.29.29,0,0,0,53.31,166.84Z"/><path d="M54.68,167.59a.29.29,0,0,0,0-.57A.29.29,0,0,0,54.68,167.59Z"/><path d="M55.77,167.68a.29.29,0,0,0,0,.57A.29.29,0,0,0,55.77,167.68Z"/><path d="M54.81,168.52c-.26.26.15.66.41.4l.14-.14c.26-.26-.15-.66-.41-.4Z"/><path d="M57.09,166.79a.29.29,0,0,0,0-.57A.29.29,0,0,0,57.09,166.79Z"/><path d="M55.49,166.84a.29.29,0,0,0,0-.58A.29.29,0,0,0,55.49,166.84Z"/><path d="M55.86,165.23a.29.29,0,0,0,0-.57A.29.29,0,0,0,55.86,165.23Z"/><path d="M56.57,164.38a.29.29,0,0,0,0,.57A.29.29,0,0,0,56.57,164.38Z"/><path d="M54.21,165.6a.29.29,0,0,0,0,.57h0a.29.29,0,0,0,0-.57Z"/><path d="M54,165.28a.29.29,0,0,0,0-.57A.29.29,0,0,0,54,165.28Z"/><path d="M57.23,164a.29.29,0,0,0,0-.57A.29.29,0,0,0,57.23,164Z"/><path d="M59.07,162.73a.29.29,0,0,0,0-.57A.29.29,0,0,0,59.07,162.73Z"/><path d="M58.7,164.57a.29.29,0,0,0,0-.57A.29.29,0,0,0,58.7,164.57Z"/><path d="M61.39,161.6a.29.29,0,0,0,0-.58A.29.29,0,0,0,61.39,161.6Z"/><path d="M57.85,166.13a.29.29,0,0,0,0-.57A.29.29,0,0,0,57.85,166.13Z"/><path d="M59.3,167.81l0,.05a.28.28,0,0,0,.4.4l.05,0A.28.28,0,0,0,59.3,167.81Z"/><path d="M59,170a.29.29,0,0,0,0-.57A.29.29,0,0,0,59,170Z"/><path d="M60.63,169.9a.29.29,0,0,0,0-.57A.29.29,0,0,0,60.63,169.9Z"/><path d="M59.45,169.34a.29.29,0,0,0,0-.58A.29.29,0,0,0,59.45,169.34Z"/><path d="M58.55,168.44a.29.29,0,0,0,0-.57A.29.29,0,0,0,58.55,168.44Z"/><path d="M61.2,169.76a.29.29,0,0,0,0,.57A.29.29,0,0,0,61.2,169.76Z"/><path d="M60.49,171.37a.29.29,0,0,0,0-.58A.29.29,0,0,0,60.49,171.37Z"/><path d="M61.87,170.69a.28.28,0,0,0-.4.4l0,0c.26.26.67-.14.41-.4Z"/><path d="M62.71,169.71a.29.29,0,0,0,0-.57A.29.29,0,0,0,62.71,169.71Z"/><path d="M61.81,169.43a.29.29,0,0,0,0-.57A.29.29,0,0,0,61.81,169.43Z"/><path d="M60.91,168.15a.29.29,0,0,0,0,.57A.29.29,0,0,0,60.91,168.15Z"/><path d="M62.09,167.45a.29.29,0,0,0,0-.57A.29.29,0,0,0,62.09,167.45Z"/><path d="M61,166.27v-.05a.29.29,0,0,0-.57,0v.05A.29.29,0,0,0,61,166.27Z"/><path d="M60.68,167.73a.29.29,0,0,0,0-.57A.29.29,0,0,0,60.68,167.73Z"/><path d="M63.08,165.75h.05a.29.29,0,0,0,0-.57h-.05A.29.29,0,0,0,63.08,165.75Z"/><path d="M64.17,163.53a.29.29,0,0,0,0-.57A.29.29,0,0,0,64.17,163.53Z"/><path d="M62.75,163.81a.29.29,0,0,0,0-.57A.29.29,0,0,0,62.75,163.81Z"/><path d="M61.39,165.7h0a.29.29,0,0,0,0-.57h0A.29.29,0,0,0,61.39,165.7Z"/><path d="M63.79,166.5a.29.29,0,0,0,0-.57A.29.29,0,0,0,63.79,166.5Z"/><path d="M65.4,161.55a.29.29,0,0,0,0-.57A.29.29,0,0,0,65.4,161.55Z"/><path d="M63.08,167.25a.29.29,0,0,0,0,.58A.29.29,0,0,0,63.08,167.25Z"/><path d="M59.88,161v0a.29.29,0,0,0-.57,0v0A.29.29,0,0,0,59.88,161Z"/><path d="M60.21,163.34a.29.29,0,0,0,0-.57A.29.29,0,0,0,60.21,163.34Z"/><path d="M56.52,163.67a.29.29,0,0,0,0-.57A.29.29,0,0,0,56.52,163.67Z"/><path d="M51.63,177.72a.29.29,0,0,0,0,.57A.29.29,0,0,0,51.63,177.72Z"/><path d="M52,179.05a.29.29,0,0,0,0-.57A.29.29,0,0,0,52,179.05Z"/><path d="M51.22,180.62a.23.23,0,0,0,.2.1.29.29,0,0,0,0-.57.24.24,0,0,0-.23.13.26.26,0,0,0-.21-.09.29.29,0,0,0,0,.57A.27.27,0,0,0,51.22,180.62Z"/><path d="M51.1,181.31a.29.29,0,0,0,0,.57A.29.29,0,0,0,51.1,181.31Z"/><path d="M52.64,177.73v0a.27.27,0,0,0-.07-.18l.1,0a.29.29,0,0,0,0-.57.29.29,0,0,0-.21.48.27.27,0,0,0-.39.25v0A.29.29,0,0,0,52.64,177.73Z"/><path d="M53.32,176.64v0a.29.29,0,0,0-.57,0v0A.29.29,0,0,0,53.32,176.64Z"/><path d="M53.14,178.67l-.08,0a.28.28,0,0,0-.27-.37.29.29,0,0,0,0,.57.29.29,0,0,0,.14,0,.14.14,0,0,0,0,.07v0a.29.29,0,0,0,.57,0v0s0-.06,0-.09a.29.29,0,0,0-.07-.56A.28.28,0,0,0,53.14,178.67Z"/><path d="M54,176.24H54a.27.27,0,0,0,.22.1.29.29,0,0,0,0-.58l-.08,0a.24.24,0,0,0-.21-.1A.29.29,0,0,0,54,176.24Z"/><path d="M54,177.45v0a.28.28,0,0,0,0-.13H54a.28.28,0,0,0,.26-.4.23.23,0,0,0,.19.08.29.29,0,1,0-.26-.17.23.23,0,0,0-.19-.08.29.29,0,0,0-.24.43.27.27,0,0,0-.36.26v0A.29.29,0,0,0,54,177.45Z"/><path d="M55.78,177.05a.29.29,0,0,0,0-.57A.29.29,0,0,0,55.78,177.05Z"/><path d="M54.49,175.64a.29.29,0,0,0,0-.57A.29.29,0,0,0,54.49,175.64Z"/><path d="M55,176.08a.29.29,0,0,0,0-.57A.29.29,0,0,0,55,176.08Z"/><path d="M52.27,179.3a.25.25,0,0,0-.15,0,.25.25,0,0,0-.25-.17.29.29,0,0,0,0,.57.25.25,0,0,0,.15-.05.25.25,0,0,0,.25.17A.29.29,0,0,0,52.27,179.3Z"/><path d="M52.27,180.55a.29.29,0,0,0,0,.57A.29.29,0,0,0,52.27,180.55Z"/><path d="M51.47,178.73a.29.29,0,0,0,0,.58A.29.29,0,0,0,51.47,178.73Z"/><path d="M51,185.38a.29.29,0,0,0,0,.57A.29.29,0,0,0,51,185.38Z"/><path d="M51,184.74a.29.29,0,0,0-.23-.45.27.27,0,0,0-.27.26.28.28,0,0,0,.23.44A.26.26,0,0,0,51,184.74Z"/><path d="M51.71,184.3v0a.29.29,0,0,0-.57,0v0A.29.29,0,0,0,51.71,184.3Z"/><path d="M51.63,182a.29.29,0,0,0,0,.57A.29.29,0,0,0,51.63,182Z"/><path d="M52.39,183a.29.29,0,0,0,0-.57A.29.29,0,0,0,52.39,183Z"/><path d="M52.43,183.57a.29.29,0,0,0,0,.57A.29.29,0,0,0,52.43,183.57Z"/><path d="M51.83,181.6a.29.29,0,0,0,0-.57A.29.29,0,0,0,51.83,181.6Z"/><path d="M53,179.9a.29.29,0,0,0,0,.57A.29.29,0,0,0,53,179.9Z"/><path d="M51.91,185a.24.24,0,0,0-.21.1.28.28,0,0,0,.09.55.27.27,0,0,0,.21-.1A.28.28,0,0,0,51.91,185Z"/><path d="M52.75,184.78a.29.29,0,0,0,0,.57A.29.29,0,0,0,52.75,184.78Z"/><path d="M52.23,185.58a.29.29,0,0,0,0,.58A.29.29,0,0,0,52.23,185.58Z"/><path d="M53.48,185.34a.29.29,0,0,0,0,.57A.29.29,0,0,0,53.48,185.34Z"/><path d="M54.65,185.5l-.06,0a.29.29,0,0,0-.22-.46h0a.29.29,0,0,0,0,.57h.1a.29.29,0,0,0,.22.46A.29.29,0,0,0,54.65,185.5Z"/><path d="M53.6,183.61a.29.29,0,0,0,0,.57A.29.29,0,0,0,53.6,183.61Z"/><path d="M54.29,184.5a.29.29,0,0,0,0-.57A.29.29,0,0,0,54.29,184.5Z"/><path d="M55.45,184.09a.29.29,0,0,0,0,.57A.29.29,0,0,0,55.45,184.09Z"/><path d="M54.53,182.81a.29.29,0,0,0,0-.57A.29.29,0,0,0,54.53,182.81Z"/><path d="M53.24,182.41a.29.29,0,0,0,0-.57A.29.29,0,0,0,53.24,182.41Z"/><path d="M53.4,181.36a.29.29,0,0,0,0-.57A.29.29,0,0,0,53.4,181.36Z"/><path d="M54.43,180.64c.33-.17,0-.66-.29-.5l-.06,0a.28.28,0,0,0-.28-.28h0a.29.29,0,0,0,0,.57h.08a.3.3,0,0,0,.43.25Z"/><path d="M54.81,179.14a.29.29,0,0,0,0,.57A.29.29,0,0,0,54.81,179.14Z"/><path d="M54.53,178.05a.29.29,0,0,0,0,.57A.29.29,0,0,0,54.53,178.05Z"/><path d="M55.33,177.86a.29.29,0,0,0,0-.58A.29.29,0,0,0,55.33,177.86Z"/><path d="M55.86,175.16a.29.29,0,0,0,0-.58A.29.29,0,0,0,55.86,175.16Z"/><path d="M53.84,178.82l0,0c-.26.26.14.66.41.4l0,0C54.51,179,54.1,178.56,53.84,178.82Z"/><path d="M55.78,180.71h0a.29.29,0,0,0,0,.57h0A.29.29,0,0,0,55.78,180.71Z"/><path d="M54.73,181.76v0a.29.29,0,0,0-.57,0v0A.29.29,0,0,0,54.73,181.76Z"/><path d="M53.48,183.17l.08-.08a.29.29,0,0,0-.41-.41l-.08.08A.29.29,0,0,0,53.48,183.17Z"/><path d="M53.12,183.89a.29.29,0,0,0,0,.57A.29.29,0,0,0,53.12,183.89Z"/><path d="M55.17,182.88a.29.29,0,0,0,0,.58A.29.29,0,0,0,55.17,182.88Z"/><path d="M56.74,183.58a.29.29,0,0,0,0-.57A.29.29,0,0,0,56.74,183.58Z"/><path d="M57.79,183a.29.29,0,0,0,0,.57A.29.29,0,0,0,57.79,183Z"/><path d="M56.78,184.42h0a.29.29,0,0,0,0,.57h0A.29.29,0,0,0,56.78,184.42Z"/><path d="M55.69,185.39l0,0c-.26.26.15.66.41.4l0,0C56.36,185.53,56,185.13,55.69,185.39Z"/><path d="M57.19,178.9a.29.29,0,0,0,0,.57A.29.29,0,0,0,57.19,178.9Z"/><path d="M56.14,179.11a.29.29,0,0,0,0-.58A.29.29,0,0,0,56.14,179.11Z"/><path d="M56.74,178.18l.08-.09a.28.28,0,0,0-.4-.4l-.08.08C56.08,178,56.48,178.44,56.74,178.18Z"/><path d="M57.55,176.36a.29.29,0,0,0,0,.57A.29.29,0,0,0,57.55,176.36Z"/><path d="M57.35,175.52a.29.29,0,0,0,0-.57A.29.29,0,0,0,57.35,175.52Z"/><path d="M57.87,174.26a.29.29,0,0,0,0,.57A.29.29,0,0,0,57.87,174.26Z"/><path d="M59.4,175.44a.29.29,0,0,0,0-.57A.29.29,0,0,0,59.4,175.44Z"/><path d="M56.7,176.2h0a.29.29,0,0,0,0-.57h0A.29.29,0,0,0,56.7,176.2Z"/><path d="M59,177.69a.29.29,0,0,0,0,.57A.29.29,0,0,0,59,177.69Z"/><path d="M56.78,179.5a.29.29,0,0,0,0,.57A.29.29,0,0,0,56.78,179.5Z"/><path d="M58.44,181.6a.29.29,0,0,0,0-.57A.29.29,0,0,0,58.44,181.6Z"/><path d="M59.6,180.55a.29.29,0,0,0,0,.57A.29.29,0,0,0,59.6,180.55Z"/><path d="M56.54,181.31a.29.29,0,0,0,0,.58A.29.29,0,0,0,56.54,181.31Z"/><path d="M56.66,182.45c.26-.26-.14-.67-.4-.41l0,0c-.26.26.14.67.4.41Z"/><path d="M59.52,182a.29.29,0,0,0,0,.57A.29.29,0,0,0,59.52,182Z"/><path d="M58.64,183.21c-.26-.26-.67.14-.41.4l0,0a.29.29,0,0,0,.41-.4Z"/><path d="M57.59,184.54h0a.29.29,0,0,0,0,.57h0A.29.29,0,0,0,57.59,184.54Z"/><path d="M62,180.76l-.08.08c-.27.26.14.66.4.4l.08-.08A.28.28,0,0,0,62,180.76Z"/><path d="M61.7,178.13a.29.29,0,0,0,0,.57A.29.29,0,0,0,61.7,178.13Z"/><path d="M62.79,176.84a.29.29,0,0,0,0,.57A.29.29,0,0,0,62.79,176.84Z"/><path d="M63.83,176a.29.29,0,0,0,0,.58A.29.29,0,0,0,63.83,176Z"/><path d="M63.47,174a.29.29,0,0,0,0,.57A.29.29,0,0,0,63.47,174Z"/><path d="M65,173.9a.29.29,0,0,0,0,.57A.29.29,0,0,0,65,173.9Z"/><path d="M61.58,175.51a.29.29,0,0,0,0,.57A.29.29,0,0,0,61.58,175.51Z"/><path d="M50.28,182.51a.29.29,0,0,0,0,.57A.29.29,0,0,0,50.28,182.51Z"/><path d="M52.86,181.85l0,0c.17-.33-.33-.62-.49-.29l0,0C52.2,181.89,52.69,182.18,52.86,181.85Z"/><path d="M52,183.54a.29.29,0,0,0,0-.57A.29.29,0,0,0,52,183.54Z"/><path d="M54.13,182v0a.29.29,0,0,0-.57,0v0A.29.29,0,0,0,54.13,182Z"/><path d="M52,184.79a.29.29,0,0,0,0-.57A.29.29,0,0,0,52,184.79Z"/><path d="M55.35,182v0a.29.29,0,0,0,.57,0v0A.29.29,0,0,0,55.35,182Z"/><path d="M57.68,181.05a.29.29,0,0,0,0-.57A.29.29,0,0,0,57.68,181.05Z"/><path d="M59.19,179.18a.29.29,0,0,0,0,.57A.29.29,0,0,0,59.19,179.18Z"/><path d="M39.52,162.87c.26-.26-.15-.66-.41-.4l0,0a.28.28,0,0,0,.07.45.28.28,0,1,0,.24,0l.09-.06Z"/><path d="M40.08,162.84a.29.29,0,0,0,0,.58A.29.29,0,0,0,40.08,162.84Z"/><path d="M38.55,163h0a.29.29,0,0,0,0,.57h0A.29.29,0,0,0,38.55,163Z"/><path d="M38,161.8a.29.29,0,0,0,0,.57A.29.29,0,0,0,38,161.8Z"/><path d="M39,162.08a.29.29,0,0,0,0-.57l-.1,0a.28.28,0,0,0-.24-.43.29.29,0,0,0,0,.58l.1,0a.32.32,0,0,0,0,.27.26.26,0,0,0-.19.08l-.1.1c-.26.26.14.66.41.4l.1-.1A.26.26,0,0,0,39,162.08Z"/><path d="M37.65,162.72a.29.29,0,0,0,0,.57A.29.29,0,0,0,37.65,162.72Z"/><path d="M41.46,162.74a.29.29,0,0,0,0,.57A.29.29,0,0,0,41.46,162.74Z"/><path d="M41.9,162.13a.29.29,0,0,0,0,.57A.29.29,0,0,0,41.9,162.13Z"/><path d="M41.21,164.13a.46.46,0,0,0-.13-.08.26.26,0,0,0,.18-.26v0a.29.29,0,0,0-.57,0v0a.26.26,0,0,0,.23.27.29.29,0,0,0-.12.47h0l.06,0a.29.29,0,0,0-.19.38.28.28,0,0,0-.13,0,.29.29,0,0,0-.31.47l0,0a.26.26,0,0,0,.32.05.28.28,0,0,0,.4-.25v-.05a.31.31,0,0,0,0-.1.26.26,0,0,0,.24-.23l0,0,0,0a.28.28,0,0,0,0,.13h0a.29.29,0,0,0,0,.17l-.07,0a.29.29,0,0,0,0,.58,1,1,0,0,1,.59-.73h0a.28.28,0,0,0-.11-.22l0,0a.29.29,0,0,0-.12-.55.27.27,0,0,0-.21.1l-.06,0-.13.1a.22.22,0,0,0-.08.15.2.2,0,0,0-.08-.08.28.28,0,0,0,.14-.47Z"/><path d="M43.3,162.57a.29.29,0,0,0,0-.57A.29.29,0,0,0,43.3,162.57Z"/><path d="M40.26,161.67A.26.26,0,0,0,40,162a.27.27,0,0,0-.27-.21.29.29,0,0,0,0,.58A.27.27,0,0,0,40,162a.25.25,0,0,0,.26.2A.29.29,0,0,0,40.26,161.67Z"/><path d="M41.12,163.1l0-.1a.26.26,0,0,0-.17-.32.28.28,0,0,0-.18-.5.29.29,0,0,0-.13.54.23.23,0,0,0-.07.13l0,.1C40.48,163.31,41,163.46,41.12,163.1Z"/><path d="M41.35,161.92l0,0c.16-.33-.33-.62-.5-.29l0,0C40.69,162,41.18,162.25,41.35,161.92Z"/><path d="M42.1,160.75a.29.29,0,0,0,0,.57A.29.29,0,0,0,42.1,160.75Z"/><path d="M42.43,161.16v0a.23.23,0,0,0,.15.23.28.28,0,1,0,.2,0,.25.25,0,0,0,.22-.26v0A.29.29,0,0,0,42.43,161.16Z"/><path d="M42.64,162.18a.29.29,0,0,0,0,.57A.29.29,0,0,0,42.64,162.18Z"/><path d="M44.58,160.29a.29.29,0,0,0,0,.57A.29.29,0,0,0,44.58,160.29Z"/><path d="M43.33,160.57a.29.29,0,0,0,0,.57A.29.29,0,0,0,43.33,160.57Z"/><path d="M42.69,160.65a.29.29,0,0,0,0-.57A.29.29,0,0,0,42.69,160.65Z"/><path d="M42.41,159.24a.29.29,0,0,0,0,.57A.29.29,0,0,0,42.41,159.24Z"/><path d="M44.15,159.49a.29.29,0,0,0,0,.57A.29.29,0,0,0,44.15,159.49Z"/><path d="M43.56,159.39a.29.29,0,0,0,0,.57A.29.29,0,0,0,43.56,159.39Z"/><path d="M45.76,159.24a.25.25,0,0,0-.25.17l-.08,0a.29.29,0,0,0,0,.57.25.25,0,0,0,.25-.17l.08,0A.29.29,0,0,0,45.76,159.24Z"/><path d="M50.47,163.13a.94.94,0,1,0,.05.56A.28.28,0,0,0,50.47,163.13Z"/><path d="M51.72,163.38a.25.25,0,0,0-.25.17.27.27,0,0,0-.26-.37.29.29,0,0,0,0,.57.25.25,0,0,0,.25-.17.28.28,0,0,0,.26.37A.29.29,0,0,0,51.72,163.38Z"/><path d="M52.26,162.61a.29.29,0,0,0,0,.58A.29.29,0,0,0,52.26,162.61Z"/><path d="M51.13,163.16a.82.82,0,1,0-.08-.55A.28.28,0,0,0,51.13,163.16Z"/><path d="M49.59,163.26a.29.29,0,0,0-.12-.54.28.28,0,0,0,0,.56.26.26,0,0,0-.17.26h0a.29.29,0,0,0,.57,0h0A.26.26,0,0,0,49.59,163.26Z"/><path d="M48.29,163.11a.29.29,0,0,0,0-.57A.29.29,0,0,0,48.29,163.11Z"/><path d="M48.26,162a.29.29,0,0,0-.2-.5.25.25,0,0,0-.23.14.32.32,0,0,0-.18-.06.29.29,0,0,0,0,.57l.12,0a.27.27,0,0,0,.27.33A.29.29,0,0,0,48.26,162Z"/><path d="M53.67,162.59a.29.29,0,0,0,0,.57A.29.29,0,0,0,53.67,162.59Z"/><path d="M52.82,162.49a.29.29,0,0,0,0,.57A.29.29,0,0,0,52.82,162.49Z"/><path d="M53.08,161.8a.29.29,0,0,0,0,.57A.29.29,0,0,0,53.08,161.8Z"/><path d="M52.31,161.56a.29.29,0,0,0,0,.58A.29.29,0,0,0,52.31,161.56Z"/><path d="M52.69,161a.29.29,0,0,0,0,.57A.29.29,0,0,0,52.69,161Z"/><path d="M53.36,161.05a.29.29,0,0,0,0,.57A.29.29,0,0,0,53.36,161.05Z"/><path d="M54,161.64a.29.29,0,0,0,0,.57A.29.29,0,0,0,54,161.64Z"/><path d="M48.83,162.19a.28.28,0,0,0,.28-.28.24.24,0,0,0,.21.1.29.29,0,0,0,0-.57.28.28,0,0,0-.21-.46.28.28,0,0,0,0,.56.14.14,0,1,1-.27.08A.29.29,0,0,0,48.83,162.19Z"/><path d="M47.74,161.16v0a.26.26,0,0,0-.24-.26.29.29,0,0,0-.26-.41h0a.29.29,0,0,0,0,.57.3.3,0,0,0,0,.1v0A.29.29,0,0,0,47.74,161.16Z"/><path d="M47.17,160.45a.29.29,0,0,0,0-.57A.29.29,0,0,0,47.17,160.45Z"/><path d="M46.45,159.67a.29.29,0,0,0,0,.57A.29.29,0,0,0,46.45,159.67Z"/><path d="M46.5,158.88a.29.29,0,0,0,0,.57A.29.29,0,0,0,46.5,158.88Z"/><path d="M47.53,159.58a.29.29,0,0,0,0-.57A.29.29,0,0,0,47.53,159.58Z"/><path d="M48.06,160.27a.29.29,0,0,0,0-.57A.29.29,0,0,0,48.06,160.27Z"/><path d="M48.24,160.93a.29.29,0,0,0,0-.57A.29.29,0,0,0,48.24,160.93Z"/><path d="M48.91,163a.29.29,0,0,0,0-.57h0a.29.29,0,0,0,0,.57Z"/><path d="M50,162v0a.29.29,0,0,0,.57,0v0A.29.29,0,0,0,50,162Z"/><path d="M49,163a.29.29,0,0,0,0,.57A.29.29,0,0,0,49,163Z"/><path d="M51.17,161.46a.29.29,0,0,0-.14-.53.28.28,0,0,0-.19.49.29.29,0,1,0,.33,0Z"/><path d="M49.7,159.75a.29.29,0,0,0,0,.57A.29.29,0,0,0,49.7,159.75Z"/><path d="M51.11,158.55a.29.29,0,0,0-.11.55.28.28,0,0,0,.06.56.29.29,0,0,0,.11-.55A.28.28,0,0,0,51.11,158.55Z"/><path d="M51.67,159.47h0a.29.29,0,0,0,0,.57h0A.29.29,0,0,0,51.67,159.47Z"/><path d="M48.75,159.32a.29.29,0,0,0,0-.57A.29.29,0,0,0,48.75,159.32Z"/><path d="M48.88,160.65a.29.29,0,0,0,0-.57A.29.29,0,0,0,48.88,160.65Z"/><path d="M50.72,160.31a.29.29,0,0,0,0,.57A.29.29,0,0,0,50.72,160.31Z"/><path d="M49.74,161.28l0,0c.33.17.61-.32.29-.49l0,0C49.7,160.62,49.41,161.11,49.74,161.28Z"/><path d="M52.13,160.91a.29.29,0,0,0,0-.57A.29.29,0,0,0,52.13,160.91Z"/><path d="M53.21,159.47a.29.29,0,0,0,0,.57A.29.29,0,0,0,53.21,159.47Z"/><path d="M54,160.09h0a.29.29,0,1,0,.23.13h0a.29.29,0,1,0-.23-.13Z"/><path d="M54.43,161.39a.29.29,0,0,0,0-.57A.29.29,0,0,0,54.43,161.39Z"/><path d="M53.69,157.51a.29.29,0,0,0,0-.58A.29.29,0,0,0,53.69,157.51Z"/><path d="M53.1,158.5a.29.29,0,0,0,0-.57A.29.29,0,0,0,53.1,158.5Z"/><path d="M53.82,159.58a.29.29,0,0,0,0-.57A.29.29,0,0,0,53.82,159.58Z"/><path d="M52.47,158.74a.29.29,0,0,0-.13-.32.28.28,0,0,0-.16-.51.29.29,0,0,0-.13.54.28.28,0,0,0,.16.51.21.21,0,0,0,.14,0,.28.28,0,0,0,.27.35.29.29,0,0,0,0-.57A.33.33,0,0,0,52.47,158.74Z"/><path d="M52.59,159.83a.29.29,0,0,0,0,.57.21.21,0,0,0,.12,0,.29.29,0,0,0,.14.54.29.29,0,0,0,0-.57l-.12,0A.28.28,0,0,0,52.59,159.83Z"/><path d="M51.57,161.08a.29.29,0,0,0,0,.57A.29.29,0,0,0,51.57,161.08Z"/><path d="M50.24,163.08a.29.29,0,0,0,0-.57A.29.29,0,0,0,50.24,163.08Z"/><path d="M50,159.27v0a.29.29,0,0,0,.57,0v0A.29.29,0,0,0,50,159.27Z"/><path d="M49.62,158.14a.29.29,0,0,0,0,.57A.29.29,0,0,0,49.62,158.14Z"/><path d="M51.08,159.67a.29.29,0,0,0,0,.57A.29.29,0,0,0,51.08,159.67Z"/><path d="M52.08,157.37v0a.29.29,0,0,0,.57,0v0A.29.29,0,0,0,52.08,157.37Z"/><path d="M53.18,156.89a.29.29,0,0,0,0-.57A.29.29,0,0,0,53.18,156.89Z"/><path d="M51.41,158.12a.29.29,0,0,0,0-.57A.29.29,0,0,0,51.41,158.12Z"/><path d="M50.42,158.38a.29.29,0,0,0,0-.58A.29.29,0,0,0,50.42,158.38Z"/><path d="M40.39,160.32a.29.29,0,0,0,0-.57A.29.29,0,0,0,40.39,160.32Z"/><path d="M39.85,161.32a.29.29,0,0,0,0-.57A.29.29,0,0,0,39.85,161.32Z"/><path d="M40.62,161.27a.29.29,0,0,0,0-.57A.29.29,0,0,0,40.62,161.27Z"/><path d="M41.76,160l0,0c-.32-.17-.61.32-.29.49l0,0C41.8,160.68,42.09,160.18,41.76,160Z"/><path d="M41.57,159.53a.29.29,0,0,0,0-.57A.29.29,0,0,0,41.57,159.53Z"/><path d="M41.72,161v0a.29.29,0,0,0-.57,0v0A.29.29,0,0,0,41.72,161Z"/><path d="M37.71,161.52v0a.29.29,0,0,0-.57,0v0A.29.29,0,0,0,37.71,161.52Z"/><path d="M37.91,159h0a.25.25,0,0,0-.26-.19.29.29,0,0,0,0,.57h0a.26.26,0,0,0,.26.19A.29.29,0,0,0,37.91,159Z"/><path d="M38.09,160.24a.29.29,0,0,0,0-.57A.29.29,0,0,0,38.09,160.24Z"/><path d="M38.75,159.66a.28.28,0,0,0,.06-.56.29.29,0,0,0-.19-.5,1.27,1.27,0,0,0,.13,1.06Z"/><path d="M37.42,158.76a.29.29,0,0,0,0-.57A.29.29,0,0,0,37.42,158.76Z"/><path d="M37.7,159.93l0,0a.28.28,0,0,0-.4.4l0,0C37.56,160.6,38,160.2,37.7,159.93Z"/><path d="M38.11,160.77a.29.29,0,0,0,0,.57A.29.29,0,0,0,38.11,160.77Z"/><path d="M39.42,159.65a.29.29,0,0,0,0,.57A.29.29,0,0,0,39.42,159.65Z"/><path d="M38.83,161.11a.29.29,0,0,0,0-.57A.29.29,0,0,0,38.83,161.11Z"/><path d="M39.6,158.91h0a.29.29,0,0,0,.15-.52.27.27,0,0,0-.23-.13.29.29,0,0,0-.24.43A.26.26,0,0,0,39.6,158.91Z"/><path d="M40.21,159.42a.29.29,0,0,0,0-.57A.29.29,0,0,0,40.21,159.42Z"/><path d="M40.46,158.12v0a.29.29,0,0,0,.57,0v0A.29.29,0,0,0,40.46,158.12Z"/><path d="M38.9,158.25a.29.29,0,0,0,0-.57A.29.29,0,0,0,38.9,158.25Z"/><path d="M38.24,157.89v0a.29.29,0,0,0-.57,0v0A.29.29,0,0,0,38.24,157.89Z"/><path d="M38.09,157.17a.26.26,0,0,0,.26-.18h0a.29.29,0,0,0,0-.57.25.25,0,0,0-.26.19h0A.29.29,0,0,0,38.09,157.17Z"/><path d="M40.9,159.89a.29.29,0,0,0,0-.58A.29.29,0,0,0,40.9,159.89Z"/><path d="M42.13,158.17a.29.29,0,0,0,0-.57A.29.29,0,0,0,42.13,158.17Z"/><path d="M43,158.44h0a.29.29,0,0,0,0,.58h0A.29.29,0,0,0,43,158.44Z"/><path d="M44.1,159a.29.29,0,0,0,0-.57A.29.29,0,0,0,44.1,159Z"/><path d="M44.87,158.8a.29.29,0,0,0,0,.57A.29.29,0,0,0,44.87,158.8Z"/><path d="M45.89,158.12v0a.29.29,0,0,0-.57,0v0A.29.29,0,0,0,45.89,158.12Z"/><path d="M44.08,157.4l0,0c.26.26.67-.14.4-.4l0,0A.29.29,0,0,0,44.08,157.4Z"/><path d="M44.58,158.48h0a.29.29,0,0,0,0-.57h0A.29.29,0,0,0,44.58,158.48Z"/><path d="M43.36,157.55a.29.29,0,0,0,0,.57h0a.29.29,0,0,0,0-.57Z"/><path d="M47.19,157.19a.29.29,0,0,0,0,.57A.29.29,0,0,0,47.19,157.19Z"/><path d="M47.47,158.81h0a.29.29,0,0,0,0-.57h0A.29.29,0,0,0,47.47,158.81Z"/><path d="M46.3,157.78a.29.29,0,0,0,0,.57A.29.29,0,0,0,46.3,157.78Z"/><path d="M48.17,158.73a.29.29,0,0,0,0-.57A.29.29,0,0,0,48.17,158.73Z"/><path d="M49,157.22h0a.29.29,0,0,0,0,.57h0A.29.29,0,0,0,49,157.22Z"/><path d="M48.91,158.48h0a.29.29,0,0,0,0-.57h0A.29.29,0,0,0,48.91,158.48Z"/><path d="M49.37,159.6a.29.29,0,0,0,0-.57A.29.29,0,0,0,49.37,159.6Z"/><path d="M42.39,164.1h0a.29.29,0,0,0-.57,0h0A.29.29,0,0,0,42.39,164.1Z"/><path d="M51.89,162.63a.29.29,0,0,0,0-.58A.29.29,0,0,0,51.89,162.63Z"/><path d="M49.64,162a.29.29,0,0,0,0,.57A.29.29,0,0,0,49.64,162Z"/><path d="M41.85,162a.29.29,0,0,0,0-.57A.29.29,0,0,0,41.85,162Z"/><path d="M45.47,158.8v0a.29.29,0,0,0,.57,0v0A.29.29,0,0,0,45.47,158.8Z"/><path d="M39.74,157.36l.06,0c.33-.16,0-.66-.28-.49l-.07,0C39.12,157,39.41,157.52,39.74,157.36Z"/><path d="M40.67,156.89a.29.29,0,0,0,0,.57A.29.29,0,0,0,40.67,156.89Z"/><path d="M40.89,155.8l0,0c-.26.26.14.66.41.4l0,0C41.56,156,41.15,155.54,40.89,155.8Z"/><path d="M40,156.52a.29.29,0,0,0,0-.57A.29.29,0,0,0,40,156.52Z"/><path d="M39,155.93a.29.29,0,0,0,0-.57A.29.29,0,0,0,39,155.93Z"/><path d="M41,153.72a.29.29,0,0,0,0-.58A.29.29,0,0,0,41,153.72Z"/><path d="M40.57,152.71a.29.29,0,0,0,0-.58A.29.29,0,0,0,40.57,152.71Z"/><path d="M43.15,152.35a.29.29,0,0,0,0-.57A.29.29,0,0,0,43.15,152.35Z"/><path d="M40.51,154.53a.29.29,0,0,0,0-.57A.29.29,0,0,0,40.51,154.53Z"/><path d="M44,154.86a.29.29,0,0,0,0-.57A.29.29,0,0,0,44,154.86Z"/><path d="M42.69,156.39a.29.29,0,0,0,0-.57A.29.29,0,0,0,42.69,156.39Z"/><path d="M42.56,154.63a.29.29,0,0,0,0-.57A.29.29,0,0,0,42.56,154.63Z"/><path d="M45.79,155.59a.29.29,0,0,0,0,.57A.29.29,0,0,0,45.79,155.59Z"/><path d="M45.43,156.73a.29.29,0,0,0,0,.57A.29.29,0,0,0,45.43,156.73Z"/><path d="M48,156.49a.29.29,0,0,0,0-.58A.29.29,0,0,0,48,156.49Z"/><path d="M47,154.43a.29.29,0,0,0,0-.57A.29.29,0,0,0,47,154.43Z"/><path d="M45.92,152.69a.29.29,0,0,0,0,.57A.29.29,0,0,0,45.92,152.69Z"/><path d="M48.88,153.85a.29.29,0,0,0,0-.58A.29.29,0,0,0,48.88,153.85Z"/><path d="M49.63,155.51a.29.29,0,0,0,0-.57A.29.29,0,0,0,49.63,155.51Z"/><path d="M50.77,156.14a.29.29,0,0,0,0,.57A.29.29,0,0,0,50.77,156.14Z"/><path d="M50.19,157.59a.29.29,0,0,0,0-.57A.29.29,0,0,0,50.19,157.59Z"/><path d="M52.24,156.26a.29.29,0,0,0,0-.57A.29.29,0,0,0,52.24,156.26Z"/><path d="M51.17,154.86a.29.29,0,0,0,0-.57A.29.29,0,0,0,51.17,154.86Z"/><path d="M50.74,153a.29.29,0,0,0,0-.57A.29.29,0,0,0,50.74,153Z"/><path d="M50.09,154.21a.29.29,0,0,0,0-.58A.29.29,0,0,0,50.09,154.21Z"/><path d="M52,154.34a.29.29,0,0,0,0-.58A.29.29,0,0,0,52,154.34Z"/><path d="M51.91,157.07a.29.29,0,0,0,0-.57A.29.29,0,0,0,51.91,157.07Z"/><path d="M49.31,156.55a.29.29,0,0,0,0-.57A.29.29,0,0,0,49.31,156.55Z"/><path d="M47.45,155.61a.29.29,0,0,0,0-.58A.29.29,0,0,0,47.45,155.61Z"/><path d="M46.8,156.4a.29.29,0,0,0,0,.57A.29.29,0,0,0,46.8,156.4Z"/><path d="M27.79,179.54l0,0a.28.28,0,0,0,.4.4l0,0C28.45,179.69,28.05,179.28,27.79,179.54Z"/><path d="M28.39,178.11a.29.29,0,0,0,0,.57A.29.29,0,0,0,28.39,178.11Z"/><path d="M27,177.3a.29.29,0,0,0,0,.57A.29.29,0,0,0,27,177.3Z"/><path d="M27.55,175.47a.29.29,0,0,0,0,.57A.29.29,0,0,0,27.55,175.47Z"/><path d="M25.83,174.16h0a.29.29,0,0,0,0,.57h0A.29.29,0,0,0,25.83,174.16Z"/><path d="M28.46,173.46a.29.29,0,0,0,0,.57A.29.29,0,0,0,28.46,173.46Z"/><path d="M29.19,176.23a.29.29,0,0,0,0-.58A.29.29,0,0,0,29.19,176.23Z"/><path d="M29.93,176.94a.29.29,0,0,0,0,.57A.29.29,0,0,0,29.93,176.94Z"/><path d="M32,175.31a.29.29,0,0,0,0-.57A.29.29,0,0,0,32,175.31Z"/><path d="M30.5,174.48v0a.29.29,0,0,0-.57,0v0A.29.29,0,0,0,30.5,174.48Z"/><path d="M23.05,174.12a.29.29,0,0,0,0,.57A.29.29,0,0,0,23.05,174.12Z"/><path d="M25,176a.29.29,0,0,0,0,.58A.29.29,0,0,0,25,176Z"/><path d="M27.29,174.18a.29.29,0,0,0,0-.57A.29.29,0,0,0,27.29,174.18Z"/><path d="M31,176.08a.29.29,0,0,0,0-.57A.29.29,0,0,0,31,176.08Z"/><path d="M64.18,178.52h-.1a.29.29,0,0,0,0,.57h.1A.29.29,0,0,0,64.18,178.52Z"/><path d="M67.1,174.09a.29.29,0,0,0,0,.57A.29.29,0,0,0,67.1,174.09Z"/><path class="a" d="M46.26,273.85l1.46-3-2.58-4,1.6-4-.2-4.6v-.81a3.3,3.3,0,1,0-.57,0v.81l.22,4.62-1.56,4,2.57,4-1.46,3.05"/><path class="b" d="M43.5,254.07a2.73,2.73,0,1,1,2.73,2.73,2.73,2.73,0,0,1-2.73-2.73"/><path class="c" d="M45.79,273.81a12.76,12.76,0,0,1-1.49,2c-.84-.22-1.42-.27-1.73-.05a.58.58,0,0,0-.24.49.63.63,0,0,0,.32.57,1.53,1.53,0,0,0,1.44-.25,3.25,3.25,0,0,0,.34-.25c.7.2,1.52.49,2.22.74l.53.18c-.71.18-1.51.4-2.41.65l-2,.55c-1.58-.48-2.67-.62-3.19-.27a.75.75,0,0,0-.32.64.47.47,0,0,0,.2.4c.43.33,1.54.15,3.29-.29,1.5.46,3.31,1.16,4.83,1.75l1.29.49c-.76.2-1.56.43-2.38.66-1.43.39-3.11.86-4.56,1.19-1.81-.59-3-.79-3.55-.42a.74.74,0,0,0-.32.65.6.6,0,0,0,.24.46c.47.35,1.73.22,3.61-.21,1.45.48,3.16,1.16,4.78,1.8,1.24.5,2.46,1,3.59,1.4l-.7.28a40.9,40.9,0,0,1-9.62,3,16.63,16.63,0,0,0-4.12-1.29,1.13,1.13,0,0,0-1.1.43.92.92,0,0,0-.08.93,1.19,1.19,0,0,0,1.07.61,20.58,20.58,0,0,0,4.17-.2l2.27,1a64.07,64.07,0,0,0,6.77,2.7c-2.82.82-6.23,1.76-9.22,2.47a19.22,19.22,0,0,0-5.24-1.07h0a1.43,1.43,0,0,0-1.31,1.13,1.08,1.08,0,0,0,.69,1.26,1.64,1.64,0,0,0,.84.12,48.81,48.81,0,0,0,5-1c2.25.71,4.73,1.67,7,2.58l3.06,1.17c-1.86.46-3.9,1-5.92,1.62-1.63.47-3.34,1-4.88,1.35-2.49-.76-4.43-1.12-5.22-.56a1,1,0,0,0-.41.85.74.74,0,0,0,.31.62c.7.53,2.69.23,5.31-.43,1.87.58,4,1.37,6.05,2.12,1.71.63,3.38,1.24,4.92,1.76-1.18.33-2.45.72-3.77,1.13-.73.23-1.41.45-2,.62l-1.89.61-2,.63c-2.71-1.08-5-1.63-6-.95a1.39,1.39,0,0,0-.58,1.32,1,1,0,0,0,.45.83c1,.66,3.25.16,6.1-.71,2,.77,4,1.75,5.46,2.46.9.42,1.67.8,2.18,1,.34.14.84.38,1.41.66l.82.39c-1,.27-2.07.58-3.15.89s-2.29.66-3.41.95c-2.65-1.22-5-1.91-6.17-1.38a1.29,1.29,0,0,0-.76,1.28,1.25,1.25,0,0,0,.49,1c1,.74,3.44.33,6.39-.44a47.67,47.67,0,0,1,9.83,6.15,19.56,19.56,0,0,1,5.53,7.92,13.73,13.73,0,0,1,.27,9.29,13.26,13.26,0,0,1-6.94,8,16.27,16.27,0,0,1-12.68.84A12.44,12.44,0,0,1,31,339.93a12.92,12.92,0,0,1,7-12.75,11.84,11.84,0,0,1,7.53-.83A11.38,11.38,0,0,1,52,330.17a11.22,11.22,0,0,1,2.52,6.58,10.38,10.38,0,0,1-4.66,9.14,8.7,8.7,0,0,1-10-.72,7.45,7.45,0,0,1-1.19-9.65A6.58,6.58,0,0,1,43.3,333,6,6,0,0,1,48,334.47a5,5,0,0,1,1.6,4.44,4.58,4.58,0,0,1-4.37,3.85,3,3,0,0,1-2.22-1,2.56,2.56,0,0,1-.67-2,2.37,2.37,0,0,1,1.47-1.79,2.07,2.07,0,0,1,2,.13.23.23,0,0,0,.32-.05.22.22,0,0,0,0-.32,2.51,2.51,0,0,0-2.5-.19,2.86,2.86,0,0,0-1.75,2.16,3.07,3.07,0,0,0,.8,2.38,3.49,3.49,0,0,0,2.54,1.19h0A5.05,5.05,0,0,0,50,339a5.45,5.45,0,0,0-1.74-4.87,6.46,6.46,0,0,0-5-1.58,7,7,0,0,0-5,2.69,8,8,0,0,0,1.26,10.28,9.05,9.05,0,0,0,10.53.76,10.67,10.67,0,0,0,4.88-9.56,11.69,11.69,0,0,0-2.62-6.85,11.91,11.91,0,0,0-6.76-4,12.39,12.39,0,0,0-7.82.87A13.43,13.43,0,0,0,30.51,340a12.91,12.91,0,0,0,8.89,11.16,16.78,16.78,0,0,0,13.05-.86A13.74,13.74,0,0,0,59.62,342a14.14,14.14,0,0,0-.28-9.6,20,20,0,0,0-5.65-8.11,48.89,48.89,0,0,0-9.43-6c.93-.25,1.9-.53,2.88-.81,1.21-.35,2.48-.72,3.68-1a26.59,26.59,0,0,0,2.48,1c1.65.58,2.75.68,3.37.28a1.31,1.31,0,0,0,.56-1.21,1.18,1.18,0,0,0-.47-1c-.93-.69-3.17-.34-5.9.36l-1.32-.63c-.58-.28-1.08-.53-1.43-.67s-1.27-.58-2.16-1c-1.69-.82-3.39-1.61-5-2.26l1.42-.46c.69-.23,1.35-.44,1.89-.6l2-.62c1.32-.42,2.9-.91,4.42-1.32,2.94.94,5.28,1.43,6.21.79a1.06,1.06,0,0,0,.47-.9,1.07,1.07,0,0,0-.43-.87c-.93-.67-3.24-.31-6.23.49-1.76-.57-3.71-1.28-5.56-2s-3.72-1.36-5.37-1.9c1.29-.34,2.7-.74,4.17-1.16,2.2-.63,4.52-1.3,6.58-1.78,3.31,1.22,5.46,1.77,6.35,1.16a1,1,0,0,0,.42-.84,1.15,1.15,0,0,0-.48-1c-1-.73-3.33-.46-6.26.21-1.19-.43-2.46-.93-3.71-1.42-2.07-.81-4.28-1.66-6.34-2.35,3.07-.75,6.46-1.7,9.19-2.5a14.78,14.78,0,0,0,6.93.5,1.18,1.18,0,0,0,.88-.79,1.28,1.28,0,0,0-.29-1.26,2.39,2.39,0,0,0-2.43-.48h0c-.05,0-2.16.68-5.07,1.54a57.46,57.46,0,0,1-7.4-2.88l-1.61-.71a44.2,44.2,0,0,0,9-2.9l1.17-.48c2.35.83,4.22,1.28,4.94.76a.87.87,0,0,0,.35-.8,0,0,0,0,0,0,0,1.63,1.63,0,0,0-.79-1.22c-.92-.5-2.44,0-4.49.79-1.33-.47-2.76-1-4.07-1.56-1.57-.62-2.94-1.16-4.1-1.57,1.11-.27,2.4-.62,3.85-1,1.06-.29,2.09-.58,3-.81a17.69,17.69,0,0,0,3,.91,1.38,1.38,0,0,0,1.36-.5A.81.81,0,0,0,54,281c-.13-.23-.49-.61-1.48-.57a16.36,16.36,0,0,0-2.87.54c-.61-.22-1.25-.47-1.9-.72-1.59-.62-3-1.15-4.16-1.54l1.32-.36c1-.27,2.12-.59,3.12-.81,1.41.46,2.32.66,2.73.35a.51.51,0,0,0,.21-.48.55.55,0,0,0-.23-.44c-.41-.29-1.31-.22-2.69.08l-1.23-.42c-.76-.27-1.42-.5-2-.67a10.71,10.71,0,0,0,1.45-2.17m4.2,3.73c-.18.14-.77,0-1.49-.18a6.39,6.39,0,0,1,1-.1.89.89,0,0,1,.51.11.07.07,0,0,1,.05.08c0,.07,0,.08,0,.09m2.16,4.39a13.27,13.27,0,0,1-2.22-.65,12.77,12.77,0,0,1,2.12-.37h.11c.48,0,.83.12.94.34a.35.35,0,0,1,0,.38.94.94,0,0,1-.92.3m3,5.4c-.52.37-2.09,0-4-.64,1.64-.63,2.91-1,3.59-.62a1.19,1.19,0,0,1,.55.88.39.39,0,0,1-.15.38m1,7.11a13.55,13.55,0,0,1-6-.29c2.45-.73,4.18-1.27,4.34-1.32a3.74,3.74,0,0,1,.78-.09,1.59,1.59,0,0,1,1.2.42.85.85,0,0,1,.19.81.69.69,0,0,1-.54.47m.09,7.49c-.68.46-2.73-.08-5.24-1a19,19,0,0,1,3.59-.48,2.63,2.63,0,0,1,1.57.35.71.71,0,0,1,.3.63.53.53,0,0,1-.22.47m0,6.93c-.71.49-2.68.1-5.1-.64a18.19,18.19,0,0,1,3.89-.64,2.14,2.14,0,0,1,1.23.27.55.55,0,0,1,.24.48.6.6,0,0,1-.26.53m-.26,8.57c-.83.52-3-.26-4.87-1.11a17.49,17.49,0,0,1,3.67-.58,2.16,2.16,0,0,1,1.26.28.68.68,0,0,1,.28.6.87.87,0,0,1-.34.81m-18.79-.36c.9-.42,2.89.13,5.23,1.15-2.49.62-4.65,1-5.42.37a.76.76,0,0,1-.3-.66.83.83,0,0,1,.49-.86m-3.05-6.45c.81-.54,2.8-.05,5,.77-2.17.65-4.37,1.13-5.12.61a.56.56,0,0,1-.25-.48.93.93,0,0,1,.37-.9m-.55-7c.57-.4,2.1-.15,4,.41-2,.47-3.64.69-4.13.32a.29.29,0,0,1-.12-.25.51.51,0,0,1,.21-.48m.42-7.61a16.64,16.64,0,0,1,4.35.81,40.81,40.81,0,0,1-4.19.76,1.12,1.12,0,0,1-.59-.07.61.61,0,0,1-.42-.74,1,1,0,0,1,.85-.76h0m1.32-6.88a13.85,13.85,0,0,1,3.23.95,18.68,18.68,0,0,1-3.27.09.71.71,0,0,1-.67-.34.43.43,0,0,1,0-.46.7.7,0,0,1,.67-.24M38.62,283c.34-.23,1.21-.09,2.37.24a4.42,4.42,0,0,1-2.43.11.09.09,0,0,1-.05-.09.27.27,0,0,1,.11-.26m1.21-4.41a3.1,3.1,0,0,1,2,.1,4.13,4.13,0,0,1-2.09.18s0,0,0,0a.25.25,0,0,1,.12-.25m3-2.42a1.68,1.68,0,0,1,1,0h0a1.15,1.15,0,0,1-1,.24s-.07-.05-.07-.16,0-.1,0-.11"/><path d="M48.56,252.65h0a3.13,3.13,0,0,0-1-1,3,3,0,0,0-1.33-.4h0a2.93,2.93,0,0,0-1.32.39,3,3,0,0,0-1,1h0a2.85,2.85,0,0,0-.32,1.34,2.92,2.92,0,0,0,.32,1.35h0a3,3,0,0,0,2.33,1.35h0a3,3,0,0,0,1.33-.4,2.93,2.93,0,0,0,1-.95,0,0,0,0,0,0,0,2.89,2.89,0,0,0,.31-1.33,2.85,2.85,0,0,0-.32-1.34Zm-1.07-.84a2.73,2.73,0,0,1,.89.8,2.78,2.78,0,0,1-1.14-.37,2.84,2.84,0,0,1-.89-.8A2.84,2.84,0,0,1,47.49,251.81ZM46.83,254a3.12,3.12,0,0,0,.73-.3,2.86,2.86,0,0,0,.71-.58,3,3,0,0,0,0,1.82,2.83,2.83,0,0,0-.71-.57,2.5,2.5,0,0,0-.72-.3v0A.07.07,0,0,0,46.83,254Zm.66-.41a2.71,2.71,0,0,1-.68.28.61.61,0,0,0-.15-.26,2.32,2.32,0,0,1,.58-.45,2.78,2.78,0,0,1,1.14-.37A2.85,2.85,0,0,1,47.49,253.56Zm-1.05-1.81a2.87,2.87,0,0,0,.74.6,2.74,2.74,0,0,0,.86.33,3,3,0,0,0-.86.34,2.92,2.92,0,0,0-.63.48l-.06,0a2.88,2.88,0,0,0,.1-.78A2.92,2.92,0,0,0,46.44,251.75Zm.06,2.81.07,0a3.1,3.1,0,0,0,.61.47,2.85,2.85,0,0,0,.88.33,3.15,3.15,0,0,0-.88.34,2.87,2.87,0,0,0-.72.58,2.83,2.83,0,0,0,.14-.91A2.8,2.8,0,0,0,46.5,254.56Zm-.29-3.05a2.77,2.77,0,0,1,.25,1.17,3.06,3.06,0,0,1-.09.74l-.15,0-.16,0a3,3,0,0,1-.1-.74A2.93,2.93,0,0,1,46.21,251.51Zm-.6,2.53a3,3,0,0,0-.71.3,3,3,0,0,0-.73.59,2.92,2.92,0,0,0,.15-.93,3.09,3.09,0,0,0-.14-.91,2.86,2.86,0,0,0,.71.58,2.79,2.79,0,0,0,.72.29s0,0,0,.06Zm-.65.41a2.52,2.52,0,0,1,.66-.28.78.78,0,0,0,.16.28,3,3,0,0,1-.57.43,2.84,2.84,0,0,1-1.13.37A2.7,2.7,0,0,1,45,254.45Zm.32.54a3,3,0,0,0,.6-.46l.07,0a2.73,2.73,0,0,0-.1.76,3.14,3.14,0,0,0,.14.91,2.86,2.86,0,0,0-.71-.58,3.15,3.15,0,0,0-.88-.34A2.85,2.85,0,0,0,45.28,255Zm.66-1.52,0,0a2.89,2.89,0,0,0-.62-.47,3,3,0,0,0-.86-.34,3,3,0,0,0,1.56-.89,3,3,0,0,0-.13.89A3,3,0,0,0,45.94,253.47Zm-1-1.66a2.84,2.84,0,0,1,1.13-.37,2.7,2.7,0,0,1-.88.8,2.78,2.78,0,0,1-1.14.37A2.73,2.73,0,0,1,45,251.81Zm.25,1.32a2.51,2.51,0,0,1,.58.45.63.63,0,0,0-.16.26,2.8,2.8,0,0,1-.67-.28,2.85,2.85,0,0,1-.89-.8A2.78,2.78,0,0,1,45.21,253.13Zm-1.52.87a2.93,2.93,0,0,1,.25-1.17,2.86,2.86,0,0,1,0,2.34A2.93,2.93,0,0,1,43.69,254ZM45,256.2a2.7,2.7,0,0,1-.88-.8,2.69,2.69,0,0,1,1.13.37,2.73,2.73,0,0,1,.89.8A2.94,2.94,0,0,1,45,256.2Zm1.27.3a2.8,2.8,0,0,1-.25-1.17,2.84,2.84,0,0,1,.09-.72l.15,0,.17,0a2.84,2.84,0,0,1,.09.72A3,3,0,0,1,46.23,256.5Zm1.26-.3a2.84,2.84,0,0,1-1.13.37,2.7,2.7,0,0,1,.88-.8,2.78,2.78,0,0,1,1.14-.37A2.73,2.73,0,0,1,47.49,256.2Zm-.25-1.32a2.71,2.71,0,0,1-.57-.44.69.69,0,0,0,.15-.28,2.83,2.83,0,0,1,.67.29,2.73,2.73,0,0,1,.89.8A2.94,2.94,0,0,1,47.24,254.88Zm1.27.29a2.86,2.86,0,0,1,0-2.34,2.86,2.86,0,0,1,0,2.34Z"/><path d="M46.58,143.29a1.3,1.3,0,0,0-.82-2.46,1.28,1.28,0,0,0-.82,1.63A1.3,1.3,0,0,0,46.58,143.29Z"/><path d="M46.58,147.24a1.3,1.3,0,1,0-1.64-.82A1.3,1.3,0,0,0,46.58,147.24Z"/><path d="M46.58,151.24a1.3,1.3,0,1,0-1.64-.82A1.3,1.3,0,0,0,46.58,151.24Z"/><path d="M45.13,79.83c0,6,0,10.56.17,18.22a8.12,8.12,0,0,0,1.11,3.32,8.35,8.35,0,0,0,2.28,2.57c-.88.42-1.84.9-2.86,1.41s-1.82.91-2.67,1.32A23.94,23.94,0,0,0,39.64,105a2.71,2.71,0,0,0-2.85.56,1.89,1.89,0,0,0-.48,2c.19.51.78,1.38,2.64,1.56a10.05,10.05,0,0,0,4.17-1.29c.8.45,1.64.94,2.5,1.44,1.72,1,3.27,1.9,4.64,2.62-1,.61-2,1.3-3.09,2s-2,1.33-3,2a18.73,18.73,0,0,0-4-.46,3.72,3.72,0,0,0-2.54,1.08,1.36,1.36,0,0,0-.33,1.15,1.73,1.73,0,0,0,1,1.39c1.29.54,3.44-.49,6.05-2.11a15.05,15.05,0,0,1,4.49,1.94,12.41,12.41,0,0,1,5.81,10.75c-.24,4.32-3.55,8.27-7.54,9A8.24,8.24,0,0,1,40.93,137a7.16,7.16,0,0,1-3-4.83,7.05,7.05,0,0,1,11-6.7,6,6,0,0,1,2.59,6.06,4.74,4.74,0,0,1-2.53,3.1,3.7,3.7,0,0,1-3.24.12,3.65,3.65,0,0,1-2-2.91,2.5,2.5,0,0,1,2.09-3.06c1.34-.24,3,.35,3.34,1.74a.49.49,0,0,0,.59.36.49.49,0,0,0,.37-.59c-.48-2-2.66-2.81-4.48-2.48A3.49,3.49,0,0,0,42.79,132a4.57,4.57,0,0,0,2.54,3.68,4.72,4.72,0,0,0,4.08-.12,5.77,5.77,0,0,0,3.05-3.77,7,7,0,0,0-3-7.08,8,8,0,0,0-12.54,7.63,8.06,8.06,0,0,0,3.41,5.49,9.32,9.32,0,0,0,5.47,1.84,8.11,8.11,0,0,0,1.47-.13,10.71,10.71,0,0,0,8.34-9.91A13.42,13.42,0,0,0,49.38,118a15.74,15.74,0,0,0-3.92-1.81c.73-.47,1.48-1,2.26-1.49,1.14-.76,2.39-1.59,3.58-2.32,2.47,1.21,4.27,1.72,5.33,1.09a2.45,2.45,0,0,0-.07-3.79c-1.12-.58-3,.21-5.31,1.58-1.7-.85-3.55-1.94-5.14-2.87l-1.91-1.11,2.07-1c1-.53,2.24-1.13,3.4-1.66a9.27,9.27,0,0,0,2.16.87c2,.54,3.07.72,3.79.19a2.13,2.13,0,0,0,.66-1.73,1.69,1.69,0,0,0-.72-1.6c-1.07-.67-3-.1-5.83,1.16A7.72,7.72,0,0,1,46.28,98c-.14-7.66-.16-12.21-.16-18.22M39,108.09c-1-.09-1.62-.43-1.8-.91a.91.91,0,0,1,.26-1,1.5,1.5,0,0,1,1.1-.43,2.17,2.17,0,0,1,.73.13,19,19,0,0,1,2.72,1.26A7.7,7.7,0,0,1,39,108.09Zm-.35,10c-.15-.06-.34-.19-.43-.66,0,0,0-.16.12-.34a2.68,2.68,0,0,1,1.76-.72h0a16.7,16.7,0,0,1,2.77.23C41.07,117.66,39.44,118.39,38.69,118.07Zm17.42-7.53c.25.13.39.48.4,1,0,.8-.28,1-.38,1-.65.39-2.09,0-3.81-.84C54,110.8,55.46,110.19,56.11,110.54ZM55,103.13c.07.05.29.18.27.75s-.1.83-.27,1c-.4.3-1.65,0-2.94-.34a10.32,10.32,0,0,1-1.26-.45C52.73,103.24,54.39,102.73,55,103.13Z"/><path d="M59.24,39.21h0a17.75,17.75,0,0,0-13.9-8h-.15a17.77,17.77,0,0,0-13.82,8h0a17.81,17.81,0,0,0,0,16.05s0,0,.05,0,0,0,0,0a17.83,17.83,0,0,0,13.9,8h0a17.83,17.83,0,0,0,13.9-8,.34.34,0,0,0,.05-.17,17.81,17.81,0,0,0,0-16Zm-6.39-5A16.86,16.86,0,0,1,58.15,39a17.1,17.1,0,0,1-12.09-7A16.81,16.81,0,0,1,52.85,34.17ZM48.93,47a17.85,17.85,0,0,0,4.3-1.78,17.3,17.3,0,0,0,4.28-3.46,17.78,17.78,0,0,0-.85,5.44,17.57,17.57,0,0,0,.86,5.46,18,18,0,0,0-4.28-3.46,17.42,17.42,0,0,0-4.3-1.77v-.14C48.94,47.24,48.94,47.14,48.93,47Zm3.92-2.43a17.1,17.1,0,0,1-4.06,1.69,3.63,3.63,0,0,0-.93-1.57,16.76,16.76,0,0,1,10.29-4.9A17,17,0,0,1,52.85,44.61Zm-6.28-10.8A17.7,17.7,0,0,0,51,37.41a17.89,17.89,0,0,0,5.14,2,17.33,17.33,0,0,0-5.14,2,17.81,17.81,0,0,0-3.73,2.87l-.4-.22a17.68,17.68,0,0,0-.28-10.21ZM47,50.6a3.26,3.26,0,0,0,.4-.24A17.47,17.47,0,0,0,51,53.14a18,18,0,0,0,5.22,2,17.79,17.79,0,0,0-9.51,5.45,17.84,17.84,0,0,0,.26-10ZM45.22,32.4a17.13,17.13,0,0,1,.92,11.37,3.6,3.6,0,0,0-.88-.11,3.42,3.42,0,0,0-1,.13,17.1,17.1,0,0,1-.57-4.41A16.9,16.9,0,0,1,45.22,32.4ZM41.59,47.49A17.65,17.65,0,0,0,33,52.79a17.57,17.57,0,0,0,.89-5.55,17.78,17.78,0,0,0-.85-5.44,17.3,17.3,0,0,0,4.28,3.46A17.54,17.54,0,0,0,41.6,47c0,.1,0,.2,0,.3S41.59,47.44,41.59,47.49ZM37.76,49.9a16.75,16.75,0,0,1,3.94-1.66,3.64,3.64,0,0,0,.93,1.66,16.91,16.91,0,0,1-10.17,4.78A16.86,16.86,0,0,1,37.76,49.9Zm1.87,3.24a18,18,0,0,0,3.6-2.74,3.3,3.3,0,0,0,.41.23,18,18,0,0,0-.58,4.53,17.67,17.67,0,0,0,.85,5.43,17.79,17.79,0,0,0-9.51-5.45A17.9,17.9,0,0,0,39.63,53.14Zm4-9.08-.3.17a17.69,17.69,0,0,0-8.85-4.84,17.89,17.89,0,0,0,5.14-2A17.68,17.68,0,0,0,43.79,34a17.75,17.75,0,0,0-.19,10Zm-5.88-9.89A16.81,16.81,0,0,1,44.51,32a17.1,17.1,0,0,1-12.09,7A16.86,16.86,0,0,1,37.72,34.17ZM39.21,42a17.29,17.29,0,0,1,3.48,2.69,3.65,3.65,0,0,0-.95,1.58,16.79,16.79,0,0,1-4-1.68,17,17,0,0,1-5.3-4.78A17,17,0,0,1,39.21,42Zm-9,5.22a16.85,16.85,0,0,1,1.49-7,17.07,17.07,0,0,1,0,13.95A16.87,16.87,0,0,1,30.17,47.24Zm7.59,13.13a16.75,16.75,0,0,1-5.3-4.78,17,17,0,0,1,6.79,2.2,16.72,16.72,0,0,1,5.29,4.78A16.82,16.82,0,0,1,37.76,60.37Zm7.54,1.76a16.85,16.85,0,0,1-1.49-7,17.27,17.27,0,0,1,.54-4.26,3.83,3.83,0,0,0,1.9,0,16.91,16.91,0,0,1,.55,4.28A16.71,16.71,0,0,1,45.3,62.13Zm7.55-1.76a16.81,16.81,0,0,1-6.79,2.2,17.1,17.1,0,0,1,12.09-7A16.75,16.75,0,0,1,52.85,60.37Zm-1.48-7.89a16.71,16.71,0,0,1-3.43-2.63,3.57,3.57,0,0,0,.89-1.63,17,17,0,0,1,9.32,6.46A16.72,16.72,0,0,1,51.37,52.48Zm7.54,1.74a17,17,0,0,1,0-13.95,17.07,17.07,0,0,1,0,13.95Z"/><path d="M46.49,80A33.64,33.64,0,0,0,65.16,73.9h0l25.93.16h0a.34.34,0,0,0,.29-.52L78.9,53.21a34.44,34.44,0,0,0,.75-7.13A34,34,0,0,0,54.36,13.25h0L46.28.16A.34.34,0,0,0,46,0h0a.34.34,0,0,0-.29.16l-8.09,13h0a34,34,0,0,0-25.85,33,34.74,34.74,0,0,0,.73,7.06L.05,73a.36.36,0,0,0,0,.35.37.37,0,0,0,.3.18l25.58.15.4.3A33.79,33.79,0,0,0,45.7,80h.11M79,46.08a33.51,33.51,0,0,1-1.43,9.71.28.28,0,0,0,0,.12,33.06,33.06,0,0,1-8.41,13.82H67.94A32.53,32.53,0,0,0,78.17,46.08a32.14,32.14,0,0,0-6.46-19.43A32.66,32.66,0,0,0,55.48,15.12l-.63-1A33.28,33.28,0,0,1,79,46.08ZM45.7,76a29.87,29.87,0,0,0,11.19-2.16l0,0h.81a30.09,30.09,0,0,1-30.16-3.62A30.82,30.82,0,0,1,16.75,54.89l.23-.38A30,30,0,0,0,45.7,76Zm-9.56-2.3L55,73.83a29.26,29.26,0,0,1-18.82-.11ZM6.9,69.52a.34.34,0,0,0,0,.34.35.35,0,0,0,.3.18l14.55.09c.37.37.76.73,1.15,1.08L4.47,71.1,37.45,18c.51-.15,1-.28,1.55-.4ZM14.27,58.9a33.89,33.89,0,0,0,6.8,10.54L7.8,69.36Zm1.5-12.82c0,.58,0,1.17.05,1.75l-.28.45c-.06-.73-.09-1.47-.09-2.2A30.27,30.27,0,0,1,51.2,16.33l.23.38a29.74,29.74,0,0,0-17,1.64.4.4,0,0,0-.18.07A30,30,0,0,0,15.77,46.08ZM33.6,19.46,16.47,46.79c0-.24,0-.47,0-.71A29.31,29.31,0,0,1,33.6,19.46ZM14.93,49.25l-.71,1.13a30.23,30.23,0,0,1-.3-4.3A31.82,31.82,0,0,1,45.7,14.3a31.39,31.39,0,0,1,4.45.31l.58,1a30.94,30.94,0,0,0-36,30.52A30.31,30.31,0,0,0,14.93,49.25ZM46.24,6.85A.37.37,0,0,0,46,6.68h0a.34.34,0,0,0-.29.17l-3.38,5.46-1.38.17L46,4.33,74.51,51.14c-.1.57-.22,1.14-.36,1.7Zm2.5,5.43c-1-.09-2-.14-3-.14s-1.72,0-2.58.11L46,7.68ZM75.19,51.16v0A29.7,29.7,0,0,0,75.57,48a.28.28,0,0,0,0-.09c0-.61.06-1.22.06-1.84a29.93,29.93,0,0,0-18-27.46l-.29-.47a30.26,30.26,0,0,1,7.35,51.49l0,.06h-.56A30.11,30.11,0,0,0,75.19,51.16Zm-.25-4.39L58.27,19.66A29.26,29.26,0,0,1,75,46.08C75,46.31,74.94,46.54,74.94,46.77Zm-18.2-29.6L56,16a32.1,32.1,0,0,1,15.14,11A31.78,31.78,0,0,1,67,69.72H65.66a30.94,30.94,0,0,0-8.92-52.54Zm6.34,52.44-.07.08-34.84-.21A29.18,29.18,0,0,1,17.46,53.73L39.93,17.41a29.23,29.23,0,0,1,12,.08l22,36.26A29.39,29.39,0,0,1,63.08,69.61Zm-46.8-14A31.65,31.65,0,0,0,27.15,70.78,30.85,30.85,0,0,0,59.27,73.9l0,0h1.83A31.82,31.82,0,0,1,15.68,56.61ZM29.13,70.17l55.12.33h0a.35.35,0,0,0,.3-.17.34.34,0,0,0,0-.34L77.41,58.23c.19-.48.36-1,.52-1.46L87,71.6l-56.15-.34C30.25,70.92,29.68,70.55,29.13,70.17ZM70,69.74A34,34,0,0,0,77.1,59l6.54,10.79ZM46,1l8.94,14.54a.43.43,0,0,0,0,.07L74.89,48c0,.71-.13,1.41-.23,2.1L46.26,3.5A.34.34,0,0,0,46,3.33h0a.34.34,0,0,0-.29.17L40,12.63c-.49.08-1,.17-1.46.27ZM12.44,46.08A33.3,33.3,0,0,1,45.7,12.82a33.65,33.65,0,0,1,3.48.18l.52.87a31.36,31.36,0,0,0-4-.25A32.49,32.49,0,0,0,13.24,46.08a30.57,30.57,0,0,0,.42,5.17h0l-.64,1A33.74,33.74,0,0,1,12.44,46.08ZM1,72.83,34.71,19c.57-.23,1.15-.44,1.75-.64L3.56,71.26a.34.34,0,0,0,0,.34.33.33,0,0,0,.29.18l19.82.12c.43.37.87.72,1.32,1.07ZM45.7,79.35a33.26,33.26,0,0,1-31-21.17l.52-.83A32.5,32.5,0,0,0,62.39,73.94l.06-.06H64A33,33,0,0,1,45.7,79.35ZM34.35,73q-1.17-.5-2.28-1.08l55.51.33h0a.32.32,0,0,0,.29-.17.34.34,0,0,0,0-.34L78.21,55.91c.17-.58.33-1.16.47-1.75l11.81,19.2Z"/></svg>